<svg width="200" height="200" viewBox="0 0 200 200" fill="none" xmlns="http://www.w3.org/2000/svg">
<path d="M35.0361 149.9L29.7881 150L27.1241 150.044C26.2321 150.044 25.3361 150.044 24.4441 150.064H24.2681V149.884L24.2441 145.408V145.208H24.4441L29.7401 145.232C31.5081 145.232 33.2721 145.276 35.0361 145.296H35.1481V145.404C35.1481 146.164 35.1121 146.916 35.0961 147.664L35.0361 149.9ZM35.0361 149.9L34.9801 147.636C34.9801 146.892 34.9361 146.156 34.9281 145.424L35.0361 145.532C33.2721 145.552 31.5081 145.596 29.7401 145.596L24.4441 145.624L24.6441 145.424V149.9L24.4641 149.72C25.3361 149.72 26.2081 149.72 27.0841 149.744L29.7161 149.788L35.0361 149.9Z" fill="#EBEBEB"/>
<path d="M29.1279 155.544L23.8799 155.656L21.2159 155.7C20.3239 155.7 19.4279 155.7 18.5359 155.72H18.3599V155.54L18.3359 151.064V150.86H18.5359L23.8319 150.884C25.5959 150.884 27.3639 150.928 29.1279 150.948H29.2399V151.056C29.2399 151.816 29.2079 152.568 29.1879 153.316L29.1279 155.544ZM29.1279 155.544L29.0719 153.28C29.0519 152.536 29.0279 151.8 29.0199 151.068L29.1279 151.176C27.3639 151.196 25.5959 151.24 23.8319 151.24L18.5359 151.268L18.7359 151.068L18.7159 155.544L18.5359 155.364C19.4079 155.364 20.2799 155.364 21.1559 155.388L23.7879 155.432L29.1279 155.544Z" fill="#EBEBEB"/>
<path d="M40.8646 155.544L35.6006 155.656L32.9366 155.7C32.0446 155.7 31.1486 155.7 30.2566 155.72H30.0806V155.54L30.0566 151.064V150.86H30.2566L35.5526 150.884C37.3206 150.884 39.0846 150.928 40.8486 150.948H40.9606V151.056C40.9606 151.816 40.9246 152.568 40.9046 153.316L40.8646 155.544ZM40.8646 155.544L40.8006 153.28C40.8006 152.536 40.7566 151.8 40.7486 151.068L40.8566 151.176C39.0926 151.196 37.3286 151.24 35.5606 151.24L30.2646 151.268L30.4646 151.068L30.4446 155.544L30.2646 155.364C31.1366 155.364 32.0086 155.364 32.8846 155.388L35.5166 155.432L40.8646 155.544Z" fill="#EBEBEB"/>
<path d="M49.1157 85.68L43.8638 85.788L41.1997 85.836C40.3117 85.836 39.4157 85.836 38.5237 85.836H38.3438V85.656V81.184V80.98H38.5437L43.8397 81.004C45.6037 81.004 47.3717 81.048 49.1357 81.068H49.2437V81.2C49.2437 81.956 49.2118 82.712 49.1918 83.46L49.1157 85.68ZM49.1157 85.68L49.0597 83.416C49.0398 82.672 49.0117 81.936 49.0077 81.204L49.1157 81.312C47.3517 81.332 45.5838 81.376 43.8198 81.376L38.5237 81.4L38.7237 81.204L38.6997 85.676L38.5237 85.5C39.3957 85.5 40.2677 85.5 41.1397 85.52L43.7717 85.568L49.1157 85.68Z" fill="#EBEBEB"/>
<path d="M43.2007 91.32L37.9487 91.432L35.2847 91.48C34.3967 91.48 33.5007 91.48 32.6087 91.5H32.4287V91.32V86.848V86.644H32.6327L37.9287 86.668C39.6927 86.668 41.4567 86.712 43.2247 86.732H43.3327V86.84C43.3327 87.596 43.2967 88.352 43.2807 89.1L43.2007 91.32ZM43.2007 91.32L43.1407 89.06C43.1407 88.316 43.0967 87.58 43.0887 86.848L43.2007 86.956C41.4327 86.976 39.6687 87.02 37.9047 87.02L32.6087 87.044L32.8087 86.848L32.8007 91.32L32.6247 91.144C33.4967 91.144 34.3647 91.144 35.2407 91.144L37.8727 91.192L43.2007 91.32Z" fill="#EBEBEB"/>
<path d="M181.464 103.844L176.212 103.956L173.548 104C172.66 104 171.764 104 170.872 104.02H170.692V103.84L170.672 99.364V99.164H170.872L176.168 99.188C177.932 99.188 179.7 99.232 181.464 99.252H181.572V99.36C181.572 100.12 181.54 100.872 181.52 101.62L181.464 103.844ZM181.464 103.844L181.408 101.58C181.408 100.836 181.36 100.1 181.356 99.368L181.464 99.476C179.7 99.496 177.932 99.54 176.168 99.54L170.872 99.568L171.072 99.368L171.048 103.844L170.872 103.664C171.744 103.664 172.616 103.664 173.488 103.688L176.12 103.732L181.464 103.844Z" fill="#EBEBEB"/>
<path d="M175.556 24.456L170.304 24.568L167.64 24.612C166.752 24.612 165.856 24.612 164.964 24.636H164.8V24.456V19.98V19.78H165.004L170.3 19.804C172.064 19.804 173.828 19.852 175.596 19.872H175.704V20C175.704 20.76 175.668 21.516 175.652 22.264L175.556 24.456ZM175.556 24.456L175.5 22.196C175.48 21.448 175.452 20.712 175.444 19.98L175.556 20.088C173.788 20.112 172.024 20.152 170.26 20.156L164.964 20.18L165.164 19.98L165.14 24.456L164.964 24.28C165.836 24.28 166.704 24.28 167.58 24.28L170.212 24.324L175.556 24.456Z" fill="#EBEBEB"/>
<path d="M181.464 30.1L176.212 30.212L173.548 30.256C172.66 30.256 171.764 30.256 170.872 30.28H170.692V30.1L170.672 25.624V25.424H170.872L176.168 25.448C177.932 25.448 179.7 25.496 181.464 25.516H181.572V25.624C181.572 26.384 181.54 27.14 181.52 27.888L181.464 30.1ZM181.464 30.1L181.408 27.84C181.408 27.092 181.36 26.356 181.356 25.624L181.464 25.732C179.7 25.756 177.932 25.796 176.168 25.8L170.872 25.824L171.072 25.624L171.048 30.1L170.872 29.924C171.744 29.924 172.616 29.924 173.488 29.924L176.12 29.968L181.464 30.1Z" fill="#EBEBEB"/>
<path d="M35.0361 24.456L29.7881 24.568L27.1241 24.612C26.2321 24.612 25.3361 24.612 24.4441 24.636H24.2681V24.456L24.2441 20V19.8H24.4441L29.7401 19.824C31.5081 19.824 33.2721 19.872 35.0361 19.892H35.1481V20C35.1481 20.76 35.1121 21.516 35.0961 22.264L35.0361 24.456ZM35.0361 24.456L34.9801 22.196C34.9801 21.448 34.9361 20.712 34.9281 19.98L35.0361 20.088C33.2721 20.112 31.5081 20.152 29.7401 20.156L24.4441 20.18L24.6441 19.98V24.456L24.4641 24.28C25.3361 24.28 26.2081 24.28 27.0841 24.28L29.7161 24.324L35.0361 24.456Z" fill="#EBEBEB"/>
<path d="M156.176 151.908L150.928 152.02L148.264 152.064C147.372 152.064 146.476 152.064 145.584 152.088H145.408V151.908L145.384 147.432V147.232H145.584L150.88 147.26C152.644 147.26 154.412 147.304 156.176 147.324H156.288V147.432C156.288 148.192 156.256 148.948 156.236 149.696L156.176 151.908ZM156.176 151.908L156.12 149.648C156.1 148.904 156.076 148.164 156.068 147.432L156.176 147.544C154.412 147.564 152.644 147.604 150.88 147.608L145.584 147.632L145.784 147.432V151.908L145.604 151.732C146.476 151.732 147.348 151.732 148.224 151.752L150.856 151.796L156.176 151.908Z" fill="#EBEBEB"/>
<path d="M173.6 104.984L175.8 101.432L174.712 100.76C174.556 100.663 174.431 100.524 174.35 100.359C174.268 100.195 174.234 100.011 174.252 99.828C174.264 99.6188 174.264 99.4091 174.252 99.2C174.247 99.0166 174.293 98.8353 174.385 98.6764C174.476 98.5175 174.611 98.3872 174.772 98.3L175.896 97.696L173.932 94L172.8 94.62C172.638 94.705 172.455 94.7436 172.272 94.7317C172.09 94.7197 171.914 94.6575 171.764 94.552C171.593 94.4323 171.416 94.3227 171.232 94.224C171.069 94.1366 170.934 94.0058 170.842 93.8462C170.749 93.6866 170.703 93.5044 170.708 93.32L170.748 92.044L166.572 91.912L166.536 93.196C166.528 93.3799 166.469 93.558 166.366 93.7105C166.263 93.863 166.12 93.984 165.952 94.06L165.676 94.2L165.412 94.352C165.255 94.4469 165.075 94.4971 164.892 94.4971C164.709 94.4971 164.529 94.4469 164.372 94.352L163.28 93.672L161.076 97.224L162.164 97.9C162.32 97.9966 162.446 98.1352 162.528 98.3C162.609 98.4648 162.642 98.6491 162.624 98.832C162.624 99.04 162.6 99.232 162.604 99.456C162.609 99.6389 162.563 99.8197 162.472 99.9785C162.381 100.137 162.248 100.268 162.088 100.356L160.96 100.96L162.936 104.644L164.06 104.036C164.223 103.951 164.406 103.912 164.589 103.924C164.773 103.936 164.949 103.999 165.1 104.104C165.27 104.223 165.446 104.333 165.628 104.432C165.79 104.518 165.926 104.648 166.018 104.807C166.111 104.966 166.157 105.148 166.152 105.332L166.112 106.612L170.288 106.744L170.328 105.46C170.335 105.277 170.394 105.1 170.496 104.948C170.598 104.796 170.741 104.675 170.908 104.6L171.184 104.46C171.276 104.412 171.364 104.36 171.452 104.308C171.609 104.212 171.79 104.161 171.974 104.161C172.158 104.161 172.339 104.212 172.496 104.308L173.6 104.984ZM170.064 102.348C169.467 102.668 168.789 102.804 168.114 102.739C167.44 102.674 166.8 102.41 166.276 101.981C165.752 101.552 165.367 100.977 165.169 100.329C164.972 99.6808 164.971 98.9888 165.167 98.3404C165.363 97.692 165.747 97.1162 166.27 96.6861C166.794 96.2559 167.433 95.9906 168.107 95.9237C168.781 95.8569 169.46 95.9915 170.057 96.3105C170.655 96.6296 171.144 97.1187 171.464 97.716C171.676 98.1127 171.808 98.5474 171.851 98.9951C171.895 99.4427 171.85 99.8947 171.719 100.325C171.588 100.755 171.373 101.155 171.087 101.503C170.801 101.85 170.449 102.137 170.052 102.348H170.064Z" fill="#DBDBDB"/>
<path d="M34.4841 63.828L33.0241 61.292L32.2481 61.74C32.1357 61.804 32.0079 61.8356 31.8787 61.8314C31.7495 61.8271 31.624 61.7872 31.5161 61.716C31.3961 61.636 31.2681 61.564 31.1401 61.496C31.0226 61.4408 30.9229 61.3539 30.8522 61.2451C30.7815 61.1362 30.7427 61.0098 30.7401 60.88V60H27.8281V60.896C27.8255 61.0258 27.7866 61.1522 27.7159 61.2611C27.6453 61.3699 27.5456 61.4568 27.4281 61.512C27.3001 61.58 27.1721 61.652 27.0521 61.732C26.9442 61.8032 26.8187 61.8431 26.6895 61.8474C26.5603 61.8516 26.4324 61.82 26.3201 61.756L25.5441 61.308L24.0841 63.844L24.8601 64.292C24.9685 64.3559 25.0574 64.4481 25.1173 64.5588C25.1773 64.6694 25.2059 64.7943 25.2001 64.92C25.2001 64.992 25.2001 65.064 25.2001 65.136C25.2001 65.208 25.2001 65.28 25.2001 65.352C25.2079 65.4802 25.1804 65.6081 25.1204 65.7217C25.0604 65.8353 24.9704 65.9302 24.8601 65.996L24.0801 66.448L25.5401 68.98L26.3401 68.532C26.4517 68.4679 26.5789 68.4362 26.7075 68.4405C26.8361 68.4447 26.961 68.4847 27.0681 68.556C27.1893 68.6361 27.3148 68.7096 27.4441 68.776C27.5622 68.8315 27.6623 68.919 27.733 69.0286C27.8037 69.1383 27.8422 69.2656 27.8441 69.396V70.292H30.7681V69.396C30.7704 69.2657 30.8091 69.1386 30.8798 69.029C30.9504 68.9195 31.0503 68.8318 31.1681 68.776C31.3059 68.7112 31.4395 68.6377 31.5681 68.556C31.6752 68.4847 31.8001 68.4447 31.9287 68.4405C32.0573 68.4362 32.1845 68.4679 32.2961 68.532L33.0961 68.98L34.5561 66.448L33.7081 66C33.5968 65.9352 33.506 65.8405 33.4459 65.7267C33.3858 65.6128 33.3588 65.4844 33.3681 65.356C33.3681 65.284 33.3681 65.212 33.3681 65.14C33.3681 65.068 33.3681 64.996 33.3681 64.924C33.3588 64.7956 33.3858 64.6672 33.4459 64.5533C33.506 64.4395 33.5968 64.3448 33.7081 64.28L34.4841 63.828ZM31.6841 65.136C31.6841 65.6107 31.5433 66.0747 31.2796 66.4694C31.0159 66.864 30.6411 67.1717 30.2025 67.3533C29.764 67.535 29.2814 67.5825 28.8159 67.4899C28.3503 67.3973 27.9227 67.1687 27.587 66.8331C27.2514 66.4974 27.0228 66.0698 26.9302 65.6042C26.8376 65.1387 26.8851 64.6561 27.0668 64.2176C27.2484 63.779 27.556 63.4042 27.9507 63.1405C28.3454 62.8768 28.8094 62.736 29.2841 62.736C29.5996 62.7355 29.9121 62.7972 30.2037 62.9175C30.4954 63.0379 30.7604 63.2146 30.9837 63.4375C31.207 63.6604 31.3841 63.9252 31.505 64.2166C31.6259 64.5081 31.6881 64.8205 31.6881 65.136H31.6841Z" fill="#DBDBDB"/>
<path d="M64.4566 65.328C62.2019 65.328 59.9979 65.9966 58.1231 67.2492C56.2484 68.5019 54.7873 70.2823 53.9244 72.3654C53.0616 74.4485 52.8358 76.7406 53.2757 78.952C53.7156 81.1634 54.8013 83.1947 56.3956 84.789C57.9899 86.3833 60.0212 87.4691 62.2326 87.909C64.444 88.3488 66.7362 88.1231 68.8192 87.2602C70.9023 86.3974 72.6828 84.9362 73.9354 83.0615C75.188 81.1868 75.8566 78.9827 75.8566 76.728C75.8566 73.7045 74.6556 70.8049 72.5177 68.667C70.3797 66.5291 67.4801 65.328 64.4566 65.328ZM64.4566 82.048C63.4035 82.048 62.374 81.7356 61.4984 81.1505C60.6228 80.5653 59.9404 79.7335 59.5375 78.7605C59.1347 77.7874 59.0295 76.7167 59.2352 75.6839C59.441 74.651 59.9484 73.7024 60.6934 72.9579C61.4384 72.2135 62.3874 71.7068 63.4204 71.5018C64.4535 71.2968 65.5241 71.4028 66.4968 71.8064C67.4696 72.21 68.3008 72.893 68.8853 73.7691C69.4699 74.6451 69.7814 75.6748 69.7806 76.728C69.7812 77.4271 69.6438 78.1195 69.3764 78.7654C69.109 79.4114 68.7168 79.9982 68.2222 80.4924C67.7277 80.9866 67.1405 81.3783 66.4944 81.6453C65.8482 81.9122 65.1558 82.0491 64.4566 82.048Z" fill="#EBEBEB"/>
<path d="M66.6486 65.8H62.2686L62.5086 62.7H66.4086L66.6486 65.8Z" fill="#EBEBEB"/>
<path d="M58.3086 67.28L55.2086 70.376L53.1846 68.012L55.9406 65.256L58.3086 67.28Z" fill="#EBEBEB"/>
<path d="M53.4525 74.22V78.604L50.3525 78.36V74.464L53.4525 74.22Z" fill="#EBEBEB"/>
<path d="M54.9282 82.564L58.0282 85.664L55.6642 87.684L52.9082 84.928L54.9282 82.564Z" fill="#EBEBEB"/>
<path d="M61.8721 87.416H66.2561L66.0121 90.52H62.1161L61.8721 87.416Z" fill="#EBEBEB"/>
<path d="M70.2119 85.94L73.3119 82.84L75.3359 85.208L72.5799 87.964L70.2119 85.94Z" fill="#EBEBEB"/>
<path d="M75.0684 79V74.616L78.1724 74.856V78.756L75.0684 79Z" fill="#EBEBEB"/>
<path d="M73.5922 70.656L70.4922 67.556L72.8602 65.536L75.6162 68.292L73.5922 70.656Z" fill="#EBEBEB"/>
<path d="M151.56 16.108C149.306 16.108 147.103 16.7764 145.229 18.0286C143.355 19.2808 141.894 21.0606 141.032 23.1429C140.169 25.2253 139.943 27.5166 140.383 29.7273C140.823 31.9379 141.908 33.9684 143.502 35.5622C145.096 37.156 147.126 38.2413 149.337 38.681C151.547 39.1207 153.839 38.8951 155.921 38.0325C158.003 37.17 159.783 35.7093 161.035 33.8353C162.288 31.9612 162.956 29.7579 162.956 27.504C162.957 26.0073 162.662 24.5252 162.09 23.1423C161.517 21.7595 160.678 20.503 159.619 19.4446C158.561 18.3863 157.305 17.5469 155.922 16.9744C154.539 16.4019 153.057 16.1075 151.56 16.108ZM151.56 32.824C150.507 32.824 149.477 32.5117 148.602 31.9265C147.726 31.3413 147.044 30.5095 146.641 29.5365C146.238 28.5634 146.133 27.4927 146.339 26.4599C146.544 25.427 147.052 24.4784 147.797 23.734C148.542 22.9895 149.491 22.4828 150.524 22.2778C151.557 22.0728 152.627 22.1788 153.6 22.5824C154.573 22.986 155.404 23.669 155.989 24.5451C156.573 25.4211 156.885 26.4508 156.884 27.504C156.884 28.203 156.746 28.8951 156.479 29.5408C156.211 30.1865 155.819 30.7732 155.324 31.2672C154.83 31.7613 154.243 32.1531 153.597 32.4202C152.951 32.6873 152.259 32.8245 151.56 32.824Z" fill="#EBEBEB"/>
<path d="M153.752 16.58H149.368L149.608 13.476H153.508L153.752 16.58Z" fill="#EBEBEB"/>
<path d="M145.408 18.056L142.308 21.156L140.288 18.788L143.044 16.032L145.408 18.056Z" fill="#EBEBEB"/>
<path d="M140.552 24.996V29.38L137.452 29.14V25.24L140.552 24.996Z" fill="#EBEBEB"/>
<path d="M142.032 33.34L145.128 36.44L142.764 38.46L140.008 35.704L142.032 33.34Z" fill="#EBEBEB"/>
<path d="M148.973 38.196H153.357L153.117 41.296H149.217L148.973 38.196Z" fill="#EBEBEB"/>
<path d="M157.316 36.72L160.416 33.62L162.436 35.984L159.68 38.74L157.316 36.72Z" fill="#EBEBEB"/>
<path d="M162.172 29.776V25.392L165.272 25.636V29.532L162.172 29.776Z" fill="#EBEBEB"/>
<path d="M160.693 21.432L157.597 18.336L159.961 16.312L162.717 19.068L160.693 21.432Z" fill="#EBEBEB"/>
<path d="M31.3922 0H30.9922V40.728H31.3922V0Z" fill="#C7C7C7"/>
<path d="M44.6482 53.696L43.5642 56.076H18.8202L17.7402 53.696L28.2762 46.404H34.1122L44.6482 53.696Z" fill="#EBEBEB"/>
<path d="M34.8439 39.38L34.1119 46.404H28.2759L27.5439 39.38H34.8439Z" fill="#DBDBDB"/>
<path d="M44.6442 53.696L43.5642 56.076H18.8202L17.7402 53.696H44.6442Z" fill="#DBDBDB"/>
<path d="M60.2086 0H59.8086V23.028H60.2086V0Z" fill="#C7C7C7"/>
<path d="M73.4606 35.992L72.3766 38.372H47.6326L46.5566 35.992L57.0886 28.704H62.9246L73.4606 35.992Z" fill="#EBEBEB"/>
<path d="M63.6564 21.676L62.9244 28.704H57.0884L56.3564 21.676H63.6564Z" fill="#DBDBDB"/>
<path d="M73.4598 35.996L72.3758 38.376H47.6318L46.5518 35.996H73.4598Z" fill="#DBDBDB"/>
<path d="M145.464 26.644H79.6878C78.8038 26.6518 77.93 26.8341 77.1166 27.1804C76.3032 27.5267 75.5662 28.0301 74.9478 28.6619C74.3294 29.2937 73.8418 30.0413 73.513 30.8619C73.1842 31.6826 73.0207 32.56 73.0318 33.444V168.84C73.0211 170.618 73.7156 172.328 74.9632 173.595C76.2108 174.862 77.9097 175.583 79.6878 175.6H145.464C147.246 175.584 148.948 174.862 150.198 173.591C151.448 172.321 152.142 170.606 152.128 168.824V33.424C152.136 32.5412 151.97 31.6655 151.639 30.8469C151.308 30.0283 150.82 29.2828 150.201 28.6532C149.582 28.0236 148.845 27.522 148.032 27.1773C147.219 26.8325 146.347 26.6513 145.464 26.644ZM147.968 164.644C147.968 168.208 145.3 171.092 142.008 171.092H83.1558C79.8558 171.092 77.1878 168.208 77.1878 164.644V38.556C77.1878 31.296 79.8558 30.956 83.1558 30.956H94.9438C95.6278 30.956 96.1878 31.756 96.1878 32.7V33.1C96.1878 35.36 97.4238 35.368 98.9478 35.368H126.208C127.74 35.368 128.968 35.368 128.968 33.1V32.7C128.968 31.736 129.52 30.956 130.216 30.956H142C145.292 30.956 147.96 31.924 147.96 38.556L147.968 164.644Z" fill="#263238"/>
<path d="M116.295 32.544H108.859C108.738 32.544 108.622 32.4961 108.536 32.4107C108.449 32.3253 108.4 32.2093 108.399 32.088C108.399 31.966 108.448 31.849 108.534 31.7628C108.62 31.6765 108.737 31.628 108.859 31.628H116.295C116.417 31.628 116.534 31.6765 116.621 31.7628C116.707 31.849 116.755 31.966 116.755 32.088C116.754 32.2093 116.705 32.3253 116.619 32.4107C116.533 32.4961 116.417 32.544 116.295 32.544Z" fill="white"/>
<path d="M147.968 38.556V164.652C147.968 168.216 145.299 171.1 142.007 171.1H83.1595C79.8595 171.1 77.1875 168.216 77.1875 164.652V38.556C77.1875 31.296 79.8595 30.956 83.1595 30.956H94.9435C95.6275 30.956 96.1875 31.756 96.1875 32.7V33.1C96.1875 35.36 97.4275 35.368 98.9475 35.368H126.207C127.743 35.368 128.968 35.368 128.968 33.1V32.7C128.968 31.736 129.52 30.956 130.216 30.956H142C145.299 30.94 147.968 31.908 147.968 38.556Z" fill="white"/>
<path d="M83.4797 42.712L82.2197 41.532L83.4797 40.356L83.6757 40.564L82.6357 41.532L83.6757 42.504L83.4797 42.712Z" fill="#DBDBDB"/>
<path d="M139.6 41.124C139.679 41.124 139.757 41.1475 139.822 41.1914C139.888 41.2354 139.939 41.2979 139.97 41.371C140 41.444 140.008 41.5245 139.993 41.6021C139.977 41.6797 139.939 41.7509 139.883 41.8069C139.827 41.8628 139.756 41.9009 139.678 41.9163C139.601 41.9318 139.52 41.9239 139.447 41.8936C139.374 41.8633 139.312 41.812 139.268 41.7463C139.224 41.6805 139.2 41.6031 139.2 41.524C139.2 41.4179 139.242 41.3162 139.317 41.2412C139.392 41.1662 139.494 41.124 139.6 41.124Z" fill="#DBDBDB"/>
<path d="M141.064 41.124C141.143 41.124 141.221 41.1475 141.286 41.1914C141.352 41.2354 141.403 41.2979 141.434 41.371C141.464 41.444 141.472 41.5245 141.456 41.6021C141.441 41.6797 141.403 41.7509 141.347 41.8069C141.291 41.8628 141.22 41.9009 141.142 41.9163C141.065 41.9318 140.984 41.9239 140.911 41.8936C140.838 41.8633 140.775 41.812 140.731 41.7463C140.688 41.6805 140.664 41.6031 140.664 41.524C140.664 41.4179 140.706 41.3162 140.781 41.2412C140.856 41.1662 140.958 41.124 141.064 41.124Z" fill="#DBDBDB"/>
<path d="M142.528 41.124C142.607 41.124 142.684 41.1475 142.75 41.1914C142.816 41.2354 142.867 41.2979 142.897 41.371C142.928 41.444 142.936 41.5245 142.92 41.6021C142.905 41.6797 142.867 41.7509 142.811 41.8069C142.755 41.8628 142.684 41.9009 142.606 41.9163C142.528 41.9318 142.448 41.9239 142.375 41.8936C142.302 41.8633 142.239 41.812 142.195 41.7463C142.151 41.6805 142.128 41.6031 142.128 41.524C142.128 41.4179 142.17 41.3162 142.245 41.2412C142.32 41.1662 142.422 41.124 142.528 41.124Z" fill="#DBDBDB"/>
<path d="M92.9123 33.772L92.7963 33.888C92.7763 33.888 92.7523 33.928 92.7323 33.952C92.5884 33.8072 92.4173 33.6924 92.2289 33.614C92.0404 33.5356 91.8384 33.4952 91.6343 33.4952C91.4302 33.4952 91.2281 33.5356 91.0396 33.614C90.8512 33.6924 90.6801 33.8072 90.5363 33.952L90.4763 33.888L90.3643 33.776C90.4123 33.732 90.4563 33.688 90.5083 33.648C90.6102 33.5645 90.7216 33.4934 90.8403 33.436C90.9796 33.3671 91.1276 33.3173 91.2803 33.288L91.5043 33.26H91.6963C91.7443 33.26 91.7963 33.26 91.8443 33.26C91.9812 33.2747 92.1156 33.3069 92.2443 33.356C92.3382 33.3913 92.4292 33.4341 92.5163 33.484C92.61 33.5366 92.6985 33.5982 92.7803 33.668C92.8203 33.7 92.8603 33.74 92.9003 33.776L92.9123 33.772Z" fill="#C7C7C7"/>
<path d="M90.8958 34.308L90.7158 34.132C90.9115 33.9305 91.1694 33.8008 91.4478 33.764C91.6475 33.7336 91.8515 33.7507 92.0434 33.8139C92.2352 33.8772 92.4094 33.9848 92.5518 34.128L92.3718 34.308C92.1755 34.1133 91.9103 34.0041 91.6338 34.0041C91.3574 34.0041 91.0921 34.1133 90.8958 34.308Z" fill="#C7C7C7"/>
<path d="M92.1921 34.488L92.0121 34.668C91.9116 34.5681 91.7757 34.512 91.6341 34.512C91.4924 34.512 91.3565 34.5681 91.2561 34.668L91.0801 34.492C91.2287 34.3473 91.4278 34.2659 91.6353 34.2652C91.8427 34.2645 92.0424 34.3443 92.1921 34.488Z" fill="#C7C7C7"/>
<path d="M91.7967 34.832C91.7906 34.8706 91.771 34.9058 91.7413 34.9312C91.7116 34.9565 91.6738 34.9705 91.6347 34.9705C91.5956 34.9705 91.5578 34.9565 91.5281 34.9312C91.4984 34.9058 91.4788 34.8706 91.4727 34.832C91.469 34.8086 91.4704 34.7847 91.4769 34.7619C91.4833 34.7391 91.4946 34.7179 91.51 34.6999C91.5254 34.6819 91.5446 34.6675 91.5661 34.6575C91.5876 34.6476 91.611 34.6425 91.6347 34.6425C91.6584 34.6425 91.6818 34.6476 91.7033 34.6575C91.7249 34.6675 91.744 34.6819 91.7594 34.6999C91.7748 34.7179 91.7861 34.7391 91.7925 34.7619C91.799 34.7847 91.8004 34.8086 91.7967 34.832Z" fill="#C7C7C7"/>
<path d="M81.8037 34.116C81.8045 34.0236 81.8326 33.9335 81.8845 33.8571C81.9364 33.7807 82.0098 33.7213 82.0954 33.6865C82.181 33.6517 82.2749 33.643 82.3655 33.6615C82.456 33.68 82.539 33.7249 82.604 33.7905C82.6691 33.8561 82.7133 33.9395 82.731 34.0302C82.7487 34.1208 82.7392 34.2147 82.7037 34.3C82.6682 34.3853 82.6082 34.4582 82.5313 34.5094C82.4544 34.5607 82.3641 34.588 82.2717 34.588C82.2099 34.588 82.1487 34.5758 82.0917 34.552C82.0347 34.5282 81.9829 34.4934 81.9394 34.4495C81.8959 34.4056 81.8615 34.3536 81.8382 34.2963C81.8149 34.2391 81.8032 34.1778 81.8037 34.116Z" fill="#C7C7C7"/>
<path d="M83.2793 34.116C83.2793 34.0227 83.307 33.9314 83.3588 33.8538C83.4107 33.7762 83.4844 33.7157 83.5707 33.6799C83.6569 33.6442 83.7518 33.6349 83.8434 33.6531C83.9349 33.6713 84.019 33.7162 84.0851 33.7823C84.1511 33.8483 84.196 33.9324 84.2142 34.0239C84.2324 34.1155 84.2231 34.2104 84.1874 34.2966C84.1516 34.3829 84.0911 34.4566 84.0135 34.5085C83.9359 34.5603 83.8447 34.588 83.7513 34.588C83.6261 34.588 83.5061 34.5383 83.4175 34.4498C83.329 34.3613 83.2793 34.2412 83.2793 34.116Z" fill="#C7C7C7"/>
<path d="M84.7598 34.116C84.7606 34.0236 84.7887 33.9335 84.8406 33.8571C84.8925 33.7807 84.9659 33.7213 85.0514 33.6865C85.137 33.6517 85.231 33.643 85.3215 33.6615C85.412 33.68 85.495 33.7249 85.5601 33.7905C85.6252 33.8561 85.6693 33.9395 85.6871 34.0302C85.7048 34.1208 85.6953 34.2147 85.6598 34.3C85.6242 34.3853 85.5642 34.4582 85.4874 34.5094C85.4105 34.5607 85.3202 34.588 85.2278 34.588C85.166 34.588 85.1048 34.5758 85.0478 34.552C84.9907 34.5282 84.9389 34.4934 84.8954 34.4495C84.8519 34.4056 84.8175 34.3536 84.7943 34.2963C84.771 34.2391 84.7593 34.1778 84.7598 34.116Z" fill="#C7C7C7"/>
<path d="M86.2354 34.116C86.2354 34.0225 86.2631 33.9311 86.3152 33.8534C86.3672 33.7757 86.4412 33.7152 86.5277 33.6796C86.6141 33.644 86.7092 33.6349 86.8009 33.6534C86.8926 33.6719 86.9767 33.7173 87.0425 33.7837C87.1084 33.8501 87.153 33.9346 87.1708 34.0264C87.1885 34.1182 87.1786 34.2133 87.1423 34.2994C87.1059 34.3856 87.0448 34.4591 86.9667 34.5104C86.8885 34.5618 86.7969 34.5888 86.7034 34.588C86.5789 34.587 86.4598 34.5368 86.3722 34.4484C86.2845 34.36 86.2353 34.2405 86.2354 34.116Z" fill="#C7C7C7"/>
<path d="M87.7119 34.116C87.7119 34.0227 87.7396 33.9314 87.7915 33.8538C87.8433 33.7762 87.917 33.7157 88.0033 33.6799C88.0895 33.6442 88.1844 33.6349 88.276 33.6531C88.3676 33.6713 88.4517 33.7162 88.5177 33.7823C88.5837 33.8483 88.6286 33.9324 88.6468 34.0239C88.6651 34.1155 88.6557 34.2104 88.62 34.2966C88.5843 34.3829 88.5238 34.4566 88.4461 34.5085C88.3685 34.5603 88.2773 34.588 88.1839 34.588C88.1219 34.588 88.0606 34.5758 88.0033 34.5521C87.946 34.5284 87.894 34.4936 87.8502 34.4498C87.8063 34.4059 87.7716 34.3539 87.7478 34.2966C87.7241 34.2394 87.7119 34.178 87.7119 34.116Z" fill="#C7C7C7"/>
<path d="M142.66 35.144H138.836V33.368H142.66V35.144ZM139.036 34.944H142.46V33.568H139.036V34.944Z" fill="#C7C7C7"/>
<path d="M141.616 33.672H139.156V34.84H141.616V33.672Z" fill="#C7C7C7"/>
<path d="M143 33.784H142.66V34.732H143V33.784Z" fill="#C7C7C7"/>
<path d="M110.704 60.424C110.704 60.8393 110.827 61.2454 111.058 61.5907C111.289 61.936 111.617 62.2052 112 62.3642C112.384 62.5231 112.806 62.5647 113.214 62.4837C113.621 62.4026 113.995 62.2026 114.289 61.9089C114.583 61.6152 114.783 61.2411 114.864 60.8337C114.945 60.4263 114.903 60.0041 114.744 59.6204C114.585 59.2366 114.316 58.9087 113.971 58.6779C113.625 58.4472 113.219 58.324 112.804 58.324C112.247 58.324 111.713 58.5453 111.319 58.9391C110.925 59.3329 110.704 59.8671 110.704 60.424Z" fill="#ADADAD"/>
<path opacity="0.9" d="M100.636 63.14C100.636 63.5356 100.753 63.9223 100.973 64.2512C101.193 64.5801 101.505 64.8364 101.87 64.9878C102.236 65.1391 102.638 65.1788 103.026 65.1016C103.414 65.0244 103.77 64.8339 104.05 64.5542C104.33 64.2745 104.52 63.9182 104.597 63.5302C104.674 63.1422 104.635 62.7401 104.484 62.3746C104.332 62.0092 104.076 61.6968 103.747 61.4771C103.418 61.2573 103.031 61.14 102.636 61.14C102.105 61.14 101.597 61.3507 101.222 61.7258C100.846 62.1009 100.636 62.6096 100.636 63.14Z" fill="#ADADAD"/>
<path opacity="0.8" d="M94.376 70.072C94.3752 70.4472 94.4857 70.8141 94.6936 71.1265C94.9014 71.4388 95.1973 71.6824 95.5436 71.8266C95.89 71.9707 96.2714 72.0088 96.6394 71.9361C97.0075 71.8634 97.3457 71.6831 97.6112 71.4181C97.8768 71.1531 98.0578 70.8153 98.1312 70.4474C98.2047 70.0795 98.1674 69.6981 98.024 69.3514C97.8806 69.0047 97.6376 68.7083 97.3258 68.4998C97.0139 68.2913 96.6471 68.18 96.272 68.18C95.7698 68.18 95.2882 68.3792 94.9327 68.7339C94.5773 69.0886 94.377 69.5699 94.376 70.072Z" fill="#ADADAD"/>
<path opacity="0.7" d="M94.0956 81.172C95.0831 81.172 95.8836 80.3715 95.8836 79.384C95.8836 78.3965 95.0831 77.596 94.0956 77.596C93.1081 77.596 92.3076 78.3965 92.3076 79.384C92.3076 80.3715 93.1081 81.172 94.0956 81.172Z" fill="#ADADAD"/>
<path opacity="0.6" d="M94.4199 88.172C94.4199 88.5059 94.5189 88.8322 94.7044 89.1098C94.8899 89.3874 95.1535 89.6038 95.462 89.7315C95.7704 89.8593 96.1098 89.8927 96.4372 89.8276C96.7647 89.7624 97.0654 89.6017 97.3015 89.3656C97.5376 89.1295 97.6984 88.8288 97.7635 88.5013C97.8286 88.1739 97.7952 87.8345 97.6674 87.526C97.5397 87.2176 97.3233 86.954 97.0457 86.7685C96.7681 86.583 96.4418 86.484 96.1079 86.484C95.6602 86.484 95.2309 86.6619 94.9143 86.9784C94.5978 87.295 94.4199 87.7243 94.4199 88.172Z" fill="#ADADAD"/>
<path opacity="0.5" d="M100.684 95.36C100.684 95.6765 100.777 95.9858 100.953 96.2489C101.129 96.512 101.379 96.7171 101.671 96.8382C101.964 96.9593 102.285 96.991 102.596 96.9293C102.906 96.8675 103.191 96.7151 103.415 96.4914C103.639 96.2676 103.791 95.9825 103.853 95.6722C103.915 95.3618 103.883 95.0401 103.762 94.7477C103.641 94.4554 103.436 94.2055 103.173 94.0297C102.909 93.8539 102.6 93.76 102.284 93.76C101.859 93.76 101.452 93.9286 101.152 94.2286C100.852 94.5287 100.684 94.9357 100.684 95.36Z" fill="#ADADAD"/>
<path opacity="0.4" d="M111.388 98.364C111.388 98.6567 111.474 98.9429 111.637 99.1863C111.8 99.4297 112.031 99.6194 112.301 99.7314C112.572 99.8434 112.869 99.8727 113.156 99.8156C113.444 99.7585 113.707 99.6175 113.914 99.4105C114.121 99.2036 114.262 98.9399 114.319 98.6528C114.376 98.3657 114.347 98.0681 114.235 97.7977C114.123 97.5272 113.933 97.2961 113.69 97.1335C113.447 96.9708 113.16 96.884 112.868 96.884C112.475 96.884 112.099 97.04 111.821 97.3175C111.544 97.5951 111.388 97.9715 111.388 98.364Z" fill="#ADADAD"/>
<path opacity="0.3" d="M122.228 95.128C122.227 95.4011 122.307 95.6683 122.458 95.8958C122.609 96.1233 122.825 96.3008 123.077 96.4058C123.329 96.5109 123.606 96.5388 123.874 96.486C124.142 96.4332 124.389 96.3021 124.582 96.1092C124.775 95.9164 124.907 95.6705 124.961 95.4027C125.014 95.1349 124.987 94.8572 124.883 94.6048C124.779 94.3525 124.602 94.1367 124.375 93.9849C124.148 93.8331 123.881 93.752 123.608 93.752C123.427 93.7515 123.247 93.7867 123.08 93.8556C122.912 93.9245 122.76 94.0258 122.632 94.1536C122.504 94.2814 122.402 94.4333 122.333 94.6005C122.263 94.7677 122.228 94.947 122.228 95.128Z" fill="#ADADAD"/>
<path opacity="0.2" d="M128.448 87.6C128.447 87.8525 128.522 88.0996 128.661 88.31C128.801 88.5204 129 88.6845 129.233 88.7817C129.466 88.8789 129.723 88.9048 129.971 88.856C130.219 88.8072 130.446 88.686 130.625 88.5077C130.804 88.3294 130.926 88.102 130.975 87.8544C131.025 87.6068 131 87.35 130.903 87.1166C130.807 86.8832 130.643 86.6837 130.434 86.5433C130.224 86.4029 129.977 86.328 129.724 86.328C129.387 86.328 129.063 86.4619 128.823 86.7003C128.584 86.9387 128.449 87.2623 128.448 87.6Z" fill="#ADADAD"/>
<path opacity="0.1" d="M130.508 79.2C130.508 79.4318 130.577 79.6584 130.705 79.8511C130.834 80.0439 131.017 80.1941 131.231 80.2828C131.445 80.3715 131.681 80.3947 131.908 80.3495C132.136 80.3043 132.345 80.1926 132.509 80.0287C132.672 79.8648 132.784 79.656 132.829 79.4287C132.875 79.2013 132.851 78.9657 132.763 78.7515C132.674 78.5374 132.524 78.3543 132.331 78.2255C132.138 78.0967 131.912 78.028 131.68 78.028C131.369 78.028 131.071 78.1515 130.851 78.3713C130.631 78.5911 130.508 78.8892 130.508 79.2Z" fill="#ADADAD"/>
<path opacity="0.05" d="M128.648 69.46C129.238 69.46 129.716 68.9818 129.716 68.392C129.716 67.8022 129.238 67.324 128.648 67.324C128.058 67.324 127.58 67.8022 127.58 68.392C127.58 68.9818 128.058 69.46 128.648 69.46Z" fill="#ADADAD"/>
<path opacity="0.01" d="M120.399 62.32C120.399 62.5115 120.456 62.6986 120.563 62.8578C120.669 63.017 120.82 63.1411 120.997 63.2143C121.174 63.2876 121.368 63.3068 121.556 63.2694C121.744 63.2321 121.917 63.1399 122.052 63.0045C122.187 62.8691 122.279 62.6967 122.317 62.5089C122.354 62.3211 122.335 62.1265 122.262 61.9496C122.188 61.7727 122.064 61.6215 121.905 61.5152C121.746 61.4088 121.559 61.352 121.367 61.352C121.24 61.3515 121.114 61.3762 120.996 61.4246C120.879 61.4731 120.772 61.5444 120.682 61.6344C120.592 61.7244 120.52 61.8313 120.472 61.949C120.424 62.0666 120.399 62.1928 120.399 62.32Z" fill="#ADADAD"/>
<path d="M112.436 83.864C113.36 83.8593 114.262 83.5807 115.028 83.0635C115.794 82.5463 116.39 81.8136 116.74 80.9581C117.09 80.1025 117.178 79.1625 116.994 78.2567C116.81 77.3509 116.362 76.52 115.706 75.8689C115.049 75.2179 114.215 74.7759 113.308 74.5987C112.401 74.4216 111.461 74.5173 110.609 74.8738C109.756 75.2302 109.028 75.8314 108.516 76.6014C108.005 77.3714 107.733 78.2757 107.736 79.2C107.737 79.8151 107.86 80.4238 108.098 80.9913C108.335 81.5588 108.682 82.0739 109.118 82.5072C109.555 82.9404 110.072 83.2833 110.642 83.5161C111.211 83.7489 111.821 83.8672 112.436 83.864ZM108.304 79.2C108.299 78.3883 108.535 77.5935 108.982 76.916C109.429 76.2384 110.067 75.7087 110.815 75.3937C111.563 75.0787 112.388 74.9926 113.185 75.1463C113.982 75.3 114.715 75.6866 115.293 76.2572C115.87 76.8278 116.265 77.5567 116.428 78.3519C116.591 79.147 116.515 79.9727 116.209 80.7244C115.902 81.4761 115.38 82.1201 114.708 82.575C114.036 83.0299 113.244 83.2752 112.432 83.28C111.344 83.2853 110.298 82.8587 109.524 82.0938C108.75 81.3289 108.311 80.2881 108.304 79.2ZM112.436 83.852C113.361 83.8472 114.263 83.5684 115.03 83.0506C115.796 82.5329 116.391 81.7995 116.741 80.9433C117.09 80.087 117.178 79.1464 116.993 78.2403C116.808 77.3342 116.358 76.5033 115.701 75.8527C115.044 75.2021 114.208 74.7611 113.3 74.5853C112.393 74.4095 111.453 74.5069 110.6 74.8652C109.748 75.2235 109.02 75.8266 108.511 76.5982C108.001 77.3698 107.731 78.2752 107.736 79.2C107.737 79.8151 107.86 80.4238 108.098 80.9913C108.335 81.5588 108.682 82.0739 109.118 82.5072C109.555 82.9404 110.072 83.2833 110.642 83.5161C111.211 83.7489 111.821 83.8672 112.436 83.864V83.852ZM108.304 79.2C108.299 78.3883 108.535 77.5935 108.982 76.916C109.429 76.2384 110.067 75.7087 110.815 75.3937C111.563 75.0787 112.388 74.9926 113.185 75.1463C113.982 75.3 114.715 75.6866 115.293 76.2572C115.87 76.8278 116.265 77.5567 116.428 78.3519C116.591 79.147 116.515 79.9727 116.209 80.7244C115.902 81.4761 115.38 82.1201 114.708 82.575C114.036 83.0299 113.244 83.2752 112.432 83.28C111.344 83.2853 110.298 82.8587 109.524 82.0938C108.75 81.3289 108.311 80.2881 108.304 79.2ZM112.436 83.852C113.361 83.8472 114.263 83.5684 115.03 83.0506C115.796 82.5329 116.391 81.7995 116.741 80.9433C117.09 80.087 117.178 79.1464 116.993 78.2403C116.808 77.3342 116.358 76.5033 115.701 75.8527C115.044 75.2021 114.208 74.7611 113.3 74.5853C112.393 74.4095 111.453 74.5069 110.6 74.8652C109.748 75.2235 109.02 75.8266 108.511 76.5982C108.001 77.3698 107.731 78.2752 107.736 79.2C107.737 79.8151 107.86 80.4238 108.098 80.9913C108.335 81.5588 108.682 82.0739 109.118 82.5072C109.555 82.9404 110.072 83.2833 110.642 83.5161C111.211 83.7489 111.821 83.8672 112.436 83.864V83.852ZM108.304 79.2C108.299 78.3883 108.535 77.5935 108.982 76.916C109.429 76.2384 110.067 75.7087 110.815 75.3937C111.563 75.0787 112.388 74.9926 113.185 75.1463C113.982 75.3 114.715 75.6866 115.293 76.2572C115.87 76.8278 116.265 77.5567 116.428 78.3519C116.591 79.147 116.515 79.9727 116.209 80.7244C115.902 81.4761 115.38 82.1201 114.708 82.575C114.036 83.0299 113.244 83.2752 112.432 83.28C111.344 83.2853 110.298 82.8587 109.524 82.0938C108.75 81.3289 108.311 80.2881 108.304 79.2ZM112.464 89.028C114.413 89.0169 116.314 88.4281 117.928 87.3362C119.542 86.2443 120.796 84.6982 121.531 82.8935C122.267 81.0889 122.45 79.1067 122.059 77.1977C121.668 75.2887 120.719 73.5386 119.333 72.1688C117.947 70.799 116.186 69.8711 114.272 69.5022C112.359 69.1334 110.379 69.3403 108.583 70.0968C106.787 70.8533 105.256 72.1254 104.183 73.7522C103.11 75.3789 102.544 77.2873 102.556 79.236C102.562 80.5305 102.823 81.811 103.325 83.0044C103.826 84.1978 104.558 85.2807 105.478 86.1912C106.398 87.1017 107.489 87.822 108.688 88.3108C109.886 88.7996 111.169 89.0474 112.464 89.04V89.028ZM107.008 79.208C107.002 78.14 107.312 77.0941 107.9 76.2026C108.488 75.3111 109.327 74.614 110.312 74.1995C111.296 73.7849 112.381 73.6716 113.43 73.8737C114.479 74.0759 115.444 74.5844 116.203 75.3352C116.963 76.0859 117.483 77.045 117.698 78.0912C117.912 79.1375 117.812 80.2238 117.409 81.2129C117.006 82.2021 116.319 83.0495 115.434 83.6481C114.55 84.2468 113.508 84.5697 112.44 84.576C111.01 84.5824 109.636 84.0226 108.619 83.0189C107.601 82.0153 107.022 80.6494 107.008 79.22V79.208ZM107.736 79.208C107.74 80.1325 108.018 81.035 108.534 81.8016C109.051 82.5682 109.784 83.1644 110.639 83.5149C111.494 83.8654 112.435 83.9544 113.341 83.7708C114.247 83.5871 115.078 83.139 115.73 82.4831C116.381 81.8272 116.823 80.9928 117.001 80.0855C117.178 79.1782 117.083 78.2387 116.726 77.3857C116.37 76.5326 115.769 75.8043 114.999 75.2928C114.229 74.7814 113.324 74.5096 112.4 74.512C111.16 74.5162 109.973 75.0123 109.098 75.8912C108.224 76.7702 107.734 77.9602 107.736 79.2V79.208ZM108.304 79.208C108.299 78.3963 108.535 77.6015 108.982 76.924C109.429 76.2464 110.067 75.7167 110.815 75.4017C111.563 75.0867 112.388 75.0006 113.185 75.1543C113.982 75.308 114.715 75.6946 115.293 76.2652C115.87 76.8358 116.265 77.5647 116.428 78.3599C116.591 79.155 116.515 79.9807 116.209 80.7324C115.902 81.4841 115.38 82.1281 114.708 82.583C114.036 83.0379 113.244 83.2832 112.432 83.288C111.892 83.2906 111.358 83.187 110.858 82.983C110.359 82.7789 109.904 82.4786 109.521 82.099C109.138 81.7193 108.833 81.268 108.624 80.7706C108.415 80.2731 108.306 79.7395 108.304 79.2V79.208ZM112.436 83.86C113.36 83.8552 114.263 83.5766 115.029 83.0592C115.795 82.5418 116.39 81.8089 116.74 80.9531C117.09 80.0974 117.178 79.1571 116.994 78.2512C116.809 77.3453 116.361 76.5144 115.704 75.8635C115.048 75.2126 114.213 74.7709 113.305 74.5942C112.398 74.4176 111.459 74.5138 110.606 74.8709C109.753 75.228 109.025 75.8298 108.514 76.6003C108.004 77.3709 107.733 78.2755 107.736 79.2C107.737 79.8151 107.86 80.4238 108.098 80.9913C108.335 81.5588 108.682 82.0739 109.118 82.5072C109.555 82.9404 110.072 83.2833 110.642 83.5161C111.211 83.7489 111.821 83.8672 112.436 83.864V83.86ZM108.304 79.2C108.299 78.3883 108.535 77.5935 108.982 76.916C109.429 76.2384 110.067 75.7087 110.815 75.3937C111.563 75.0787 112.388 74.9926 113.185 75.1463C113.982 75.3 114.715 75.6866 115.293 76.2572C115.87 76.8278 116.265 77.5567 116.428 78.3519C116.591 79.147 116.515 79.9727 116.209 80.7244C115.902 81.4761 115.38 82.1201 114.708 82.575C114.036 83.0299 113.244 83.2752 112.432 83.28C111.344 83.2853 110.298 82.8587 109.524 82.0938C108.75 81.3289 108.311 80.2881 108.304 79.2ZM112.436 83.852C113.361 83.8472 114.263 83.5684 115.03 83.0506C115.796 82.5329 116.391 81.7995 116.741 80.9433C117.09 80.087 117.178 79.1464 116.993 78.2403C116.808 77.3342 116.358 76.5033 115.701 75.8527C115.044 75.2021 114.208 74.7611 113.3 74.5853C112.393 74.4095 111.453 74.5069 110.6 74.8652C109.748 75.2235 109.02 75.8266 108.511 76.5982C108.001 77.3698 107.731 78.2752 107.736 79.2C107.737 79.8151 107.86 80.4238 108.098 80.9913C108.335 81.5588 108.682 82.0739 109.118 82.5072C109.555 82.9404 110.072 83.2833 110.642 83.5161C111.211 83.7489 111.821 83.8672 112.436 83.864V83.852ZM108.304 79.2C108.299 78.3883 108.535 77.5935 108.982 76.916C109.429 76.2384 110.067 75.7087 110.815 75.3937C111.563 75.0787 112.388 74.9926 113.185 75.1463C113.982 75.3 114.715 75.6866 115.293 76.2572C115.87 76.8278 116.265 77.5567 116.428 78.3519C116.591 79.147 116.515 79.9727 116.209 80.7244C115.902 81.4761 115.38 82.1201 114.708 82.575C114.036 83.0299 113.244 83.2752 112.432 83.28C111.344 83.2853 110.298 82.8587 109.524 82.0938C108.75 81.3289 108.311 80.2881 108.304 79.2Z" fill="#ADADAD"/>
<path d="M110.46 69.756L114.248 69.732L114.024 67.052L110.652 67.072L110.46 69.756Z" fill="#ADADAD"/>
<path d="M117.676 70.988L120.372 73.652L122.108 71.596L119.712 69.228L117.676 70.988Z" fill="#ADADAD"/>
<path d="M121.908 76.964L121.932 80.752L124.612 80.528L124.592 77.16L121.908 76.964Z" fill="#ADADAD"/>
<path d="M120.676 84.184L118.012 86.88L120.068 88.616L122.436 86.216L120.676 84.184Z" fill="#ADADAD"/>
<path d="M114.7 88.416L110.912 88.44L111.136 91.12L114.504 91.1L114.7 88.416Z" fill="#ADADAD"/>
<path d="M107.48 87.184L104.784 84.52L103.048 86.576L105.448 88.944L107.48 87.184Z" fill="#ADADAD"/>
<path d="M103.248 81.204L103.224 77.416L100.544 77.644L100.564 81.012L103.248 81.204Z" fill="#ADADAD"/>
<path d="M104.48 73.988L107.144 71.292L105.092 69.556L102.724 71.952L104.48 73.988Z" fill="#ADADAD"/>
<path d="M136.183 111.692H88.9834V107.756H136.183V111.692ZM89.1714 111.492H135.999V107.956H89.1994L89.1714 111.492Z" fill="#ADADAD"/>
<path d="M91.6315 108.568H89.9395V110.884H91.6315V108.568Z" fill="#ADADAD"/>
<path d="M93.9674 108.568H92.2754V110.884H93.9674V108.568Z" fill="#ADADAD"/>
<path d="M96.3082 108.568H94.6162V110.884H96.3082V108.568Z" fill="#ADADAD"/>
<path d="M98.6441 108.568H96.9521V110.884H98.6441V108.568Z" fill="#ADADAD"/>
<path d="M100.984 108.568H99.292V110.884H100.984V108.568Z" fill="#ADADAD"/>
<path d="M103.32 108.568H101.628V110.884H103.32V108.568Z" fill="#ADADAD"/>
<path d="M105.66 108.568H103.968V110.884H105.66V108.568Z" fill="#ADADAD"/>
<path d="M107.996 108.568H106.304V110.884H107.996V108.568Z" fill="#ADADAD"/>
<path d="M110.336 108.568H108.644V110.884H110.336V108.568Z" fill="#ADADAD"/>
<path d="M112.671 108.568H110.979V110.884H112.671V108.568Z" fill="#ADADAD"/>
<path d="M115.011 108.568H113.319V110.884H115.011V108.568Z" fill="#ADADAD"/>
<path d="M117.348 108.568H115.656V110.884H117.348V108.568Z" fill="#ADADAD"/>
<path d="M130.707 109.16L130.119 110.552C130.11 110.575 130.093 110.595 130.071 110.609C130.05 110.622 130.025 110.629 129.999 110.628H129.951C129.92 110.614 129.895 110.588 129.881 110.556C129.868 110.524 129.867 110.488 129.879 110.456L130.387 109.256H129.779C129.745 109.255 129.712 109.241 129.689 109.216C129.665 109.191 129.651 109.158 129.651 109.124C129.651 109.09 129.665 109.058 129.689 109.034C129.713 109.009 129.745 108.996 129.779 108.996H130.611L130.659 109.016V109.068L130.707 109.16Z" fill="#ADADAD"/>
<path d="M130.988 109.804C130.983 109.605 131.039 109.41 131.148 109.244C131.19 109.165 131.252 109.1 131.329 109.054C131.405 109.008 131.492 108.984 131.582 108.984C131.671 108.984 131.758 109.008 131.835 109.054C131.911 109.1 131.974 109.165 132.016 109.244C132.124 109.41 132.18 109.605 132.176 109.804C132.18 110.004 132.124 110.2 132.016 110.368C131.974 110.447 131.911 110.512 131.835 110.558C131.758 110.604 131.671 110.628 131.582 110.628C131.492 110.628 131.405 110.604 131.329 110.558C131.252 110.512 131.19 110.447 131.148 110.368C131.039 110.2 130.983 110.004 130.988 109.804ZM131.916 109.804C131.915 109.662 131.875 109.524 131.8 109.404C131.779 109.363 131.748 109.329 131.71 109.304C131.673 109.278 131.629 109.263 131.584 109.26C131.537 109.264 131.492 109.279 131.453 109.304C131.414 109.329 131.382 109.363 131.36 109.404C131.288 109.525 131.249 109.663 131.248 109.804C131.248 109.945 131.287 110.083 131.36 110.204C131.382 110.245 131.414 110.28 131.453 110.306C131.492 110.331 131.537 110.347 131.584 110.352C131.629 110.348 131.673 110.332 131.711 110.306C131.748 110.28 131.779 110.245 131.8 110.204C131.876 110.084 131.916 109.946 131.916 109.804Z" fill="#ADADAD"/>
<path d="M132.631 109.388C132.631 109.282 132.674 109.18 132.749 109.105C132.824 109.03 132.925 108.988 133.031 108.988C133.137 108.988 133.239 109.03 133.314 109.105C133.389 109.18 133.431 109.282 133.431 109.388C133.434 109.442 133.426 109.496 133.407 109.547C133.388 109.598 133.359 109.645 133.322 109.684C133.284 109.723 133.239 109.754 133.189 109.776C133.139 109.797 133.086 109.808 133.031 109.808C132.977 109.808 132.923 109.797 132.874 109.776C132.824 109.754 132.779 109.723 132.741 109.684C132.704 109.645 132.675 109.598 132.656 109.547C132.637 109.496 132.629 109.442 132.631 109.388ZM133.195 109.388C133.195 109.256 133.119 109.148 133.015 109.148C132.911 109.148 132.839 109.256 132.839 109.384C132.839 109.52 132.915 109.624 133.019 109.624C133.123 109.624 133.199 109.516 133.199 109.388H133.195ZM132.899 110.488L133.979 109.012C133.988 108.998 133.999 108.988 134.014 108.98C134.028 108.973 134.044 108.97 134.059 108.972C134.084 108.972 134.107 108.982 134.124 108.999C134.142 109.016 134.151 109.04 134.151 109.064C134.151 109.086 134.144 109.107 134.131 109.124L133.051 110.596C133.043 110.61 133.031 110.621 133.017 110.629C133.003 110.636 132.987 110.64 132.971 110.64C132.959 110.64 132.947 110.638 132.936 110.633C132.925 110.628 132.915 110.622 132.906 110.613C132.898 110.605 132.891 110.594 132.886 110.583C132.882 110.572 132.879 110.56 132.879 110.548C132.879 110.526 132.886 110.505 132.899 110.488ZM133.623 110.232C133.609 110.173 133.607 110.111 133.62 110.052C133.633 109.992 133.659 109.937 133.696 109.889C133.733 109.841 133.781 109.802 133.836 109.775C133.891 109.749 133.951 109.735 134.011 109.735C134.072 109.735 134.132 109.749 134.187 109.775C134.241 109.802 134.289 109.841 134.327 109.889C134.364 109.937 134.39 109.992 134.403 110.052C134.415 110.111 134.414 110.173 134.399 110.232C134.414 110.291 134.415 110.353 134.403 110.412C134.39 110.472 134.364 110.527 134.327 110.575C134.289 110.623 134.241 110.662 134.187 110.689C134.132 110.715 134.072 110.729 134.011 110.729C133.951 110.729 133.891 110.715 133.836 110.689C133.781 110.662 133.733 110.623 133.696 110.575C133.659 110.527 133.633 110.472 133.62 110.412C133.607 110.353 133.609 110.291 133.623 110.232ZM134.191 110.232C134.191 110.1 134.115 109.992 134.007 109.992C133.899 109.992 133.831 110.1 133.831 110.224C133.831 110.356 133.907 110.464 134.015 110.464C134.123 110.464 134.191 110.356 134.191 110.232Z" fill="#ADADAD"/>
<path d="M100.92 116.032C100.919 116.006 100.924 115.98 100.934 115.956C100.943 115.932 100.958 115.909 100.976 115.891C100.994 115.872 101.016 115.857 101.04 115.847C101.064 115.837 101.09 115.832 101.116 115.832C101.169 115.832 101.221 115.853 101.259 115.89C101.297 115.928 101.319 115.979 101.32 116.032V118.156C101.319 118.209 101.297 118.26 101.259 118.298C101.221 118.335 101.169 118.356 101.116 118.356C101.09 118.356 101.064 118.351 101.04 118.341C101.016 118.331 100.994 118.316 100.976 118.297C100.958 118.279 100.943 118.256 100.934 118.232C100.924 118.208 100.919 118.182 100.92 118.156V116.032Z" fill="#C7C7C7"/>
<path d="M102.4 118.156C102.399 118.208 102.378 118.258 102.342 118.295C102.305 118.332 102.256 118.354 102.204 118.356C102.178 118.356 102.152 118.351 102.128 118.341C102.104 118.331 102.082 118.316 102.064 118.297C102.046 118.279 102.031 118.256 102.022 118.232C102.012 118.208 102.008 118.182 102.008 118.156V116.064C102.006 116.032 102.013 116 102.027 115.972C102.041 115.943 102.062 115.918 102.088 115.9C102.109 115.885 102.132 115.874 102.157 115.868C102.182 115.861 102.208 115.86 102.233 115.864C102.259 115.869 102.283 115.878 102.305 115.891C102.327 115.905 102.345 115.923 102.36 115.944L103.524 117.544V116.06C103.524 116.009 103.544 115.959 103.58 115.923C103.616 115.886 103.665 115.865 103.716 115.864C103.768 115.865 103.818 115.886 103.855 115.922C103.892 115.959 103.914 116.008 103.916 116.06V118.152C103.915 118.205 103.894 118.255 103.856 118.292C103.819 118.33 103.769 118.351 103.716 118.352C103.688 118.35 103.66 118.343 103.635 118.331C103.609 118.319 103.587 118.301 103.568 118.28V118.256L102.416 116.656L102.4 118.156Z" fill="#C7C7C7"/>
<path d="M104.687 117.728C104.703 117.709 104.722 117.693 104.744 117.681C104.766 117.669 104.79 117.662 104.814 117.66C104.839 117.658 104.864 117.66 104.887 117.668C104.911 117.676 104.933 117.688 104.951 117.704C105.145 117.868 105.386 117.965 105.639 117.98C105.799 117.984 105.955 117.938 106.087 117.848C106.132 117.82 106.17 117.782 106.197 117.737C106.224 117.692 106.24 117.641 106.243 117.588C106.244 117.547 106.233 117.507 106.211 117.472C106.183 117.429 106.146 117.393 106.103 117.364C105.947 117.279 105.776 117.224 105.599 117.2C105.438 117.173 105.281 117.126 105.131 117.06C104.995 116.999 104.88 116.901 104.799 116.776C104.743 116.689 104.714 116.588 104.715 116.484C104.719 116.38 104.747 116.278 104.797 116.186C104.847 116.095 104.918 116.016 105.003 115.956C105.187 115.829 105.405 115.762 105.627 115.764C105.917 115.777 106.196 115.877 106.427 116.052C106.467 116.08 106.495 116.122 106.505 116.17C106.515 116.217 106.506 116.267 106.479 116.308C106.466 116.329 106.449 116.346 106.429 116.36C106.409 116.374 106.387 116.384 106.363 116.39C106.339 116.395 106.315 116.395 106.291 116.391C106.267 116.386 106.244 116.377 106.223 116.364C106.058 116.229 105.856 116.148 105.643 116.132C105.5 116.131 105.36 116.174 105.243 116.256C105.204 116.28 105.171 116.314 105.147 116.353C105.124 116.393 105.11 116.438 105.107 116.484C105.104 116.519 105.113 116.554 105.131 116.584C105.157 116.62 105.19 116.652 105.227 116.676C105.366 116.758 105.52 116.812 105.679 116.836C105.85 116.866 106.017 116.917 106.175 116.988C106.321 117.051 106.445 117.154 106.535 117.284C106.59 117.377 106.619 117.484 106.619 117.592C106.616 117.703 106.587 117.811 106.533 117.907C106.479 118.004 106.403 118.087 106.311 118.148C106.118 118.287 105.885 118.36 105.647 118.356C105.308 118.339 104.984 118.213 104.723 117.996C104.683 117.965 104.657 117.92 104.65 117.869C104.643 117.819 104.657 117.768 104.687 117.728Z" fill="#C7C7C7"/>
<path d="M108.656 116.232H108.084V118.156C108.084 118.209 108.063 118.26 108.025 118.297C107.988 118.335 107.937 118.356 107.884 118.356C107.831 118.356 107.78 118.335 107.743 118.297C107.705 118.26 107.684 118.209 107.684 118.156V116.232H107.112C107.086 116.232 107.06 116.227 107.036 116.217C107.012 116.207 106.99 116.192 106.972 116.173C106.954 116.155 106.939 116.132 106.93 116.108C106.92 116.084 106.916 116.058 106.916 116.032C106.916 116.006 106.92 115.98 106.93 115.956C106.939 115.932 106.954 115.909 106.972 115.891C106.99 115.872 107.012 115.857 107.036 115.847C107.06 115.837 107.086 115.832 107.112 115.832H108.652C108.678 115.832 108.704 115.837 108.728 115.847C108.752 115.857 108.774 115.872 108.792 115.891C108.81 115.909 108.825 115.932 108.834 115.956C108.844 115.98 108.849 116.006 108.848 116.032C108.848 116.084 108.828 116.133 108.792 116.171C108.757 116.208 108.708 116.23 108.656 116.232Z" fill="#C7C7C7"/>
<path d="M110.4 117.76H109.524L109.348 118.228C109.333 118.266 109.307 118.298 109.273 118.321C109.24 118.343 109.2 118.356 109.16 118.356C109.137 118.36 109.114 118.36 109.092 118.356C109.042 118.336 109.002 118.298 108.98 118.25C108.958 118.202 108.955 118.146 108.972 118.096L109.772 115.976C109.787 115.937 109.813 115.904 109.848 115.882C109.882 115.859 109.923 115.847 109.964 115.848C110.005 115.847 110.046 115.859 110.08 115.882C110.114 115.905 110.141 115.938 110.156 115.976L110.956 118.096C110.974 118.146 110.972 118.201 110.951 118.25C110.929 118.298 110.889 118.336 110.84 118.356C110.817 118.36 110.794 118.36 110.772 118.356C110.732 118.357 110.692 118.345 110.659 118.322C110.626 118.299 110.601 118.266 110.588 118.228L110.4 117.76ZM110.252 117.36L109.96 116.588L109.668 117.36H110.252Z" fill="#C7C7C7"/>
<path d="M111.432 118.156V116.032C111.431 116.006 111.436 115.98 111.445 115.956C111.455 115.932 111.469 115.909 111.488 115.891C111.506 115.872 111.528 115.857 111.552 115.847C111.576 115.837 111.602 115.832 111.628 115.832C111.681 115.832 111.732 115.853 111.769 115.891C111.807 115.928 111.828 115.979 111.828 116.032V117.956H112.8C112.853 117.956 112.904 117.977 112.941 118.015C112.979 118.052 113 118.103 113 118.156C112.999 118.209 112.977 118.259 112.94 118.296C112.903 118.334 112.852 118.355 112.8 118.356H111.624C111.598 118.355 111.573 118.35 111.549 118.34C111.525 118.329 111.504 118.314 111.486 118.296C111.468 118.277 111.454 118.255 111.445 118.231C111.436 118.207 111.431 118.182 111.432 118.156Z" fill="#C7C7C7"/>
<path d="M113.456 118.156V116.032C113.456 115.979 113.477 115.928 113.515 115.891C113.552 115.853 113.603 115.832 113.656 115.832C113.709 115.832 113.76 115.853 113.797 115.891C113.835 115.928 113.856 115.979 113.856 116.032V117.956H114.832C114.885 117.957 114.935 117.978 114.972 118.016C115.01 118.053 115.031 118.103 115.032 118.156C115.031 118.209 115.01 118.259 114.972 118.296C114.935 118.334 114.885 118.355 114.832 118.356H113.656C113.603 118.356 113.552 118.335 113.515 118.297C113.477 118.26 113.456 118.209 113.456 118.156Z" fill="#C7C7C7"/>
<path d="M115.527 116.032C115.527 116.006 115.532 115.98 115.541 115.956C115.551 115.932 115.565 115.909 115.583 115.891C115.602 115.872 115.623 115.857 115.647 115.847C115.671 115.837 115.697 115.832 115.723 115.832C115.777 115.832 115.828 115.853 115.866 115.89C115.904 115.928 115.926 115.979 115.927 116.032V118.156C115.926 118.209 115.904 118.26 115.866 118.298C115.828 118.335 115.777 118.356 115.723 118.356C115.697 118.356 115.671 118.351 115.647 118.341C115.623 118.331 115.602 118.316 115.583 118.297C115.565 118.279 115.551 118.256 115.541 118.232C115.532 118.208 115.527 118.182 115.527 118.156V116.032Z" fill="#C7C7C7"/>
<path d="M116.996 118.156C116.995 118.208 116.974 118.258 116.938 118.295C116.901 118.332 116.852 118.354 116.8 118.356C116.774 118.356 116.748 118.351 116.724 118.341C116.7 118.331 116.678 118.316 116.66 118.297C116.641 118.279 116.627 118.256 116.618 118.232C116.608 118.208 116.603 118.182 116.604 118.156V116.064C116.602 116.032 116.609 116 116.623 115.972C116.637 115.943 116.658 115.918 116.684 115.9C116.704 115.885 116.728 115.874 116.753 115.868C116.778 115.861 116.804 115.86 116.829 115.864C116.854 115.869 116.879 115.878 116.9 115.891C116.922 115.905 116.941 115.923 116.956 115.944L118.12 117.544V116.06C118.12 116.009 118.14 115.959 118.176 115.923C118.212 115.886 118.26 115.865 118.312 115.864C118.364 115.865 118.414 115.886 118.451 115.922C118.488 115.959 118.51 116.008 118.512 116.06V118.152C118.514 118.193 118.503 118.234 118.481 118.268C118.458 118.302 118.426 118.329 118.387 118.343C118.349 118.357 118.307 118.359 118.267 118.348C118.228 118.336 118.193 118.313 118.168 118.28L118.148 118.256L116.996 116.656V118.156Z" fill="#C7C7C7"/>
<path d="M119.084 117.06C119.089 116.813 119.163 116.573 119.297 116.366C119.432 116.159 119.621 115.993 119.844 115.888C120.067 115.782 120.315 115.741 120.56 115.769C120.805 115.796 121.038 115.892 121.232 116.044C121.254 116.06 121.273 116.081 121.287 116.104C121.301 116.128 121.311 116.154 121.314 116.181C121.318 116.209 121.316 116.237 121.309 116.263C121.302 116.29 121.289 116.314 121.272 116.336C121.237 116.378 121.187 116.405 121.132 116.411C121.078 116.417 121.023 116.401 120.98 116.368C120.818 116.241 120.618 116.172 120.412 116.172C120.292 116.17 120.172 116.192 120.061 116.238C119.949 116.283 119.848 116.35 119.764 116.436C119.679 116.516 119.612 116.612 119.566 116.719C119.52 116.826 119.496 116.942 119.496 117.058C119.496 117.174 119.52 117.29 119.566 117.397C119.612 117.504 119.679 117.6 119.764 117.68C119.848 117.766 119.949 117.833 120.061 117.879C120.172 117.924 120.292 117.946 120.412 117.944C120.586 117.943 120.757 117.896 120.908 117.808V117.312H120.4C120.346 117.312 120.293 117.291 120.254 117.253C120.215 117.214 120.193 117.162 120.192 117.108C120.193 117.081 120.198 117.055 120.209 117.03C120.22 117.006 120.235 116.983 120.255 116.965C120.274 116.946 120.297 116.932 120.322 116.922C120.347 116.912 120.373 116.907 120.4 116.908H121.116C121.143 116.907 121.17 116.911 121.195 116.921C121.22 116.93 121.243 116.945 121.263 116.964C121.282 116.982 121.297 117.005 121.308 117.03C121.319 117.054 121.324 117.081 121.324 117.108V117.908C121.326 117.928 121.326 117.948 121.324 117.968C121.311 118.004 121.285 118.033 121.252 118.052C121.025 118.234 120.743 118.334 120.452 118.336C120.278 118.344 120.104 118.316 119.941 118.256C119.778 118.196 119.628 118.103 119.501 117.985C119.373 117.866 119.271 117.723 119.199 117.564C119.128 117.405 119.089 117.234 119.084 117.06Z" fill="#C7C7C7"/>
<path d="M122.312 117.844C122.383 117.844 122.451 117.872 122.501 117.922C122.552 117.973 122.58 118.041 122.58 118.112C122.58 118.183 122.552 118.251 122.501 118.302C122.451 118.352 122.383 118.38 122.312 118.38C122.241 118.38 122.173 118.352 122.122 118.302C122.072 118.251 122.044 118.183 122.044 118.112C122.044 118.041 122.072 117.973 122.122 117.922C122.173 117.872 122.241 117.844 122.312 117.844Z" fill="#C7C7C7"/>
<path d="M123.14 117.844C123.211 117.844 123.279 117.872 123.33 117.922C123.38 117.973 123.408 118.041 123.408 118.112C123.408 118.183 123.38 118.251 123.33 118.302C123.279 118.352 123.211 118.38 123.14 118.38C123.069 118.38 123.001 118.352 122.951 118.302C122.9 118.251 122.872 118.183 122.872 118.112C122.872 118.041 122.9 117.973 122.951 117.922C123.001 117.872 123.069 117.844 123.14 117.844Z" fill="#C7C7C7"/>
<path d="M123.968 117.844C124.039 117.844 124.107 117.872 124.158 117.922C124.208 117.973 124.236 118.041 124.236 118.112C124.236 118.183 124.208 118.251 124.158 118.302C124.107 118.352 124.039 118.38 123.968 118.38C123.897 118.38 123.829 118.352 123.779 118.302C123.728 118.251 123.7 118.183 123.7 118.112C123.7 118.041 123.728 117.973 123.779 117.922C123.829 117.872 123.897 117.844 123.968 117.844Z" fill="#C7C7C7"/>
</svg>
