<svg width="300" height="200" viewBox="0 0 300 200" fill="none" xmlns="http://www.w3.org/2000/svg">
<path fill-rule="evenodd" clip-rule="evenodd" d="M236.595 73.312C237.126 73.7087 237.603 74.1741 238.011 74.696L239.815 74.364L241.015 77.164L239.527 78.24C239.623 78.8947 239.631 79.5592 239.551 80.216L241.059 81.26L239.927 84.08L238.115 83.788C237.72 84.3188 237.254 84.7938 236.731 85.2L237.059 87.008L234.259 88.208L233.199 86.708C232.536 86.7999 231.863 86.7999 231.199 86.708L230.155 88.22L227.355 87.088L227.647 85.276C227.115 84.8804 226.639 84.4149 226.231 83.892L224.427 84.22L223.227 81.42L224.711 80.344C224.623 79.6802 224.623 79.0078 224.711 78.344L223.199 77.348L224.331 74.548L226.143 74.836C226.54 74.3061 227.005 73.8312 227.527 73.424L227.199 71.6L229.999 70.4L231.075 71.884C231.738 71.7875 232.411 71.7808 233.075 71.864L234.115 70.356L236.935 71.488L236.643 73.3L236.595 73.312ZM233.455 76.332C232.858 76.0921 232.202 76.0348 231.572 76.1673C230.942 76.2997 230.365 76.6161 229.915 77.0763C229.465 77.5365 229.161 78.1199 229.042 78.7528C228.923 79.3857 228.995 80.0395 229.248 80.6318C229.5 81.224 229.923 81.728 230.462 82.08C231.001 82.432 231.633 82.6162 232.277 82.6094C232.921 82.6026 233.548 82.405 234.08 82.0416C234.611 81.6783 235.023 81.1655 235.263 80.568C235.423 80.1712 235.503 79.7468 235.498 79.3191C235.493 78.8914 235.405 78.4688 235.237 78.0754C235.069 77.6821 234.825 77.3256 234.519 77.0265C234.214 76.7273 233.852 76.4913 233.455 76.332Z" fill="#EBEBEB"/>
<path fill-rule="evenodd" clip-rule="evenodd" d="M69.128 85.484C70.087 86.202 70.9465 87.044 71.684 87.988L74.948 87.392L77.104 92.44L74.4 94.4C74.5721 95.585 74.5842 96.7878 74.436 97.976L77.164 99.86L75.12 104.956L71.86 104.4C71.1442 105.361 70.3019 106.221 69.356 106.956L69.952 110.22L64.904 112.4L62.96 109.712C61.775 109.883 60.5725 109.897 59.384 109.752L57.496 112.476L52.4 110.424L52.924 107.148C51.965 106.43 51.1055 105.588 50.368 104.644L47.108 105.24L44.952 100.192L47.64 98.248C47.4685 97.063 47.4551 95.8605 47.6 94.672L44.876 92.8L46.924 87.708L50.196 88.236C50.9149 87.2767 51.7568 86.416 52.7 85.676L52.104 82.4L57.152 80.244L59.1 82.932C60.285 82.7606 61.4875 82.7471 62.676 82.892L64.56 80.164L69.656 82.212L69.128 85.484ZM63.456 90.948C62.3753 90.5135 61.1901 90.4093 60.0503 90.6485C58.9104 90.8878 57.8671 91.4597 57.0523 92.2919C56.2375 93.1241 55.6878 94.1793 55.4728 95.324C55.2578 96.4686 55.3871 97.6514 55.8443 98.7226C56.3016 99.7937 57.0662 100.705 58.0416 101.342C59.0169 101.978 60.1591 102.311 61.3238 102.299C62.4884 102.286 63.6231 101.928 64.5843 101.271C65.5456 100.613 66.2902 99.6849 66.724 98.604C67.3043 97.1553 67.2861 95.5355 66.6734 94.1001C66.0607 92.6648 64.9036 91.5311 63.456 90.948Z" fill="#EBEBEB"/>
<path fill-rule="evenodd" clip-rule="evenodd" d="M55.7355 59.932C56.2654 60.3287 56.7403 60.7941 57.1475 61.316L58.9515 60.988L60.1515 63.788L58.6675 64.864C58.7574 65.5276 58.7574 66.2004 58.6675 66.864L60.1755 67.908L59.0435 70.708L57.2355 70.416C56.8375 70.9473 56.3707 71.4234 55.8475 71.832L56.1795 73.636L53.3795 74.836L52.3035 73.352C51.6477 73.438 50.9834 73.438 50.3275 73.352L49.2835 74.86L46.4835 73.728L46.7755 71.916C46.2447 71.5203 45.7697 71.0548 45.3635 70.532L43.5555 70.86L42.3555 68.06L43.8435 66.984C43.7468 66.328 43.7401 65.6618 43.8235 65.004L42.3115 63.964L43.4435 61.144L45.2555 61.436C45.6522 60.9049 46.1176 60.4287 46.6395 60.02L46.3115 58.216L49.1115 57.016L50.1875 58.504C50.8501 58.4062 51.5228 58.3981 52.1875 58.48L53.2315 56.972L56.0315 58.104L55.7435 59.916L55.7355 59.932ZM52.5955 62.952C51.9977 62.7113 51.3419 62.6532 50.7111 62.7851C50.0802 62.9169 49.5026 63.2328 49.0512 63.6928C48.5998 64.1527 48.2949 64.7362 48.1749 65.3694C48.055 66.0026 48.1254 66.6572 48.3774 67.2504C48.6293 67.8436 49.0514 68.3488 49.5903 68.7022C50.1292 69.0556 50.7608 69.2414 51.4053 69.236C52.0497 69.2306 52.6781 69.0343 53.2111 68.6719C53.744 68.3096 54.1576 67.7973 54.3995 67.2C54.5605 66.8027 54.6415 66.3775 54.6379 65.9488C54.6343 65.5202 54.5462 65.0964 54.3786 64.7018C54.2111 64.3072 53.9673 63.9496 53.6613 63.6493C53.3554 63.3491 52.9932 63.1121 52.5955 62.952Z" fill="#F0F0F0"/>
<path fill-rule="evenodd" clip-rule="evenodd" d="M92.4752 37.716C94.0251 38.2856 95.4915 39.0605 96.8352 40.02L100.915 37.948L105.747 43.772L102.947 47.4C103.64 48.8993 104.131 50.4838 104.407 52.112L108.751 53.532L108.051 61.068L103.515 61.66C102.946 63.2111 102.171 64.6788 101.211 66.024L103.283 70.104L97.4552 74.936L93.8312 72.136C92.3353 72.8309 90.7533 73.3232 89.1272 73.6L87.7072 77.948L80.1712 77.244L79.5992 72.716C78.0494 72.1465 76.583 71.3715 75.2392 70.412L71.1592 72.48L66.3272 66.656L69.1272 63.028C68.4346 61.5287 67.9437 59.9443 67.6672 58.316L63.3232 56.896L63.9992 49.36L68.5352 48.768C69.1028 47.2163 69.875 45.7474 70.8312 44.4L68.7592 40.324L74.5872 35.492L78.2112 38.292C79.7105 37.5957 81.2968 37.1046 82.9272 36.832L84.3472 32.484L91.8832 33.2L92.4752 37.736V37.716ZM87.1232 47.164C85.5241 47.015 83.9167 47.3436 82.5043 48.1083C81.0919 48.8729 79.938 50.0392 79.1885 51.4596C78.439 52.8801 78.1275 54.4909 78.2935 56.0884C78.4596 57.6859 79.0956 59.1982 80.1212 60.4342C81.1468 61.6702 82.5159 62.5743 84.0553 63.0321C85.5948 63.4899 87.2354 63.481 88.7697 63.0063C90.3041 62.5317 91.6632 61.6127 92.6752 60.3655C93.6872 59.1184 94.3067 57.5992 94.4552 56C94.5544 54.9383 94.4433 53.8675 94.1285 52.8488C93.8136 51.83 93.3011 50.8833 92.6202 50.0627C91.9393 49.2422 91.1033 48.5638 90.1601 48.0664C89.2169 47.569 88.185 47.2624 87.1232 47.164Z" fill="#E0E0E0"/>
<path d="M60.8439 162.4C65.8359 159.132 67.1039 152.872 67.0519 147.2C67.0519 146.256 67.1719 145.264 66.7359 144.424C66.2999 143.584 65.2559 142.996 64.3879 143.372C63.6719 143.684 63.3439 144.492 62.9279 145.156C62.3732 146.045 61.5787 146.759 60.6359 147.216C60.0199 147.512 59.2639 147.684 58.6719 147.344C57.8719 146.876 57.7879 145.744 57.8159 144.812C57.8719 143.063 57.9252 141.315 57.9759 139.568C58.0578 138.629 57.9849 137.683 57.7599 136.768C57.6406 136.315 57.4146 135.897 57.1007 135.549C56.7869 135.201 56.3943 134.933 55.9559 134.768C55.0559 134.496 53.9279 134.984 53.7119 135.896C53.6671 136.284 53.6484 136.674 53.6559 137.064C53.6567 137.26 53.5993 137.451 53.491 137.614C53.3828 137.777 53.2285 137.905 53.0479 137.98C52.8513 137.998 52.6533 137.966 52.4727 137.886C52.2921 137.806 52.1349 137.682 52.0159 137.524C51.1051 136.506 50.3674 135.345 49.8319 134.088C49.2972 132.833 48.615 131.646 47.7999 130.552C46.9359 129.496 45.7239 128.648 44.3639 128.552C43.0039 128.456 41.5359 129.24 41.1639 130.552C40.7919 131.864 41.5359 133.228 42.3639 134.316C43.5893 135.938 45.043 137.374 46.6799 138.58C46.9986 138.764 47.2507 139.044 47.3999 139.38C47.5879 140.012 46.9719 140.616 46.3439 140.808C45.6279 141.024 44.8599 140.932 44.1199 141C43.3799 141.068 42.5639 141.372 42.2679 142.056C41.8679 143.008 42.6439 144.032 43.4239 144.708C44.9972 146.068 46.7909 147.15 48.7279 147.908C49.4421 148.122 50.1117 148.463 50.7039 148.916C51.2559 149.412 51.5759 150.264 51.2199 150.916C50.8639 151.568 49.9839 151.76 49.2519 151.608C48.546 151.398 47.8595 151.127 47.1999 150.8C45.9039 150.284 44.2159 150.332 43.3519 151.428C43.0851 151.802 42.9099 152.234 42.8404 152.688C42.7709 153.143 42.8091 153.607 42.9519 154.044C43.2506 154.913 43.7213 155.713 44.3359 156.396C46.3529 158.907 48.9985 160.839 52.0039 161.996C55.0079 163.108 57.8119 163.456 60.8479 162.44" fill="#ADADAD"/>
<path d="M42.5635 129.316L42.6555 129.408L42.9315 129.66C43.1755 129.884 43.5315 130.212 43.9835 130.648C45.259 131.877 46.441 133.199 47.5195 134.604C48.2035 135.488 48.9155 136.492 49.6595 137.58C50.4035 138.668 51.1835 139.844 51.9635 141.104C52.7861 142.416 53.5353 143.773 54.2075 145.168C54.5595 145.892 54.8675 146.652 55.1795 147.424C55.4915 148.196 55.8115 148.98 56.1315 149.776C57.3578 152.748 58.4142 155.788 59.2955 158.88C60.0047 161.409 60.4721 163.999 60.6915 166.616C60.8349 168.38 60.8215 170.154 60.6515 171.916C60.5875 172.536 60.5275 173.02 60.4755 173.348C60.4515 173.504 60.4355 173.628 60.4195 173.72C60.4168 173.763 60.4168 173.805 60.4195 173.848C60.4329 173.807 60.4436 173.766 60.4515 173.724C60.4515 173.632 60.4915 173.508 60.5195 173.352C60.5835 173.028 60.6555 172.552 60.7315 171.924C60.9276 170.159 60.9597 168.379 60.8275 166.608C60.6265 163.98 60.1697 161.379 59.4635 158.84C58.5884 155.738 57.5346 152.689 56.3075 149.708C55.9821 148.908 55.6648 148.125 55.3555 147.36C55.0395 146.588 54.7275 145.824 54.3755 145.092C53.6966 143.693 52.9408 142.332 52.1115 141.016C51.3115 139.756 50.5355 138.588 49.7915 137.5C49.0475 136.412 48.3235 135.412 47.6275 134.528C46.5329 133.126 45.3292 131.812 44.0275 130.6C43.5675 130.172 43.1995 129.848 42.9475 129.636L42.6635 129.392C42.5995 129.34 42.5675 129.312 42.5635 129.316Z" fill="#263238"/>
<path d="M54.316 145.084C54.3636 144.955 54.3971 144.821 54.416 144.684C54.472 144.424 54.544 144.052 54.62 143.584C54.776 142.652 54.952 141.36 55.136 139.936C55.32 138.512 55.512 137.224 55.684 136.296C55.768 135.836 55.84 135.46 55.892 135.2C55.9281 135.069 55.9496 134.935 55.956 134.8C55.8955 134.927 55.8511 135.062 55.824 135.2C55.752 135.452 55.66 135.824 55.56 136.284C55.36 137.208 55.16 138.496 54.964 139.924C54.768 141.352 54.62 142.604 54.5 143.58C54.44 144.016 54.388 144.38 54.352 144.684C54.3246 144.815 54.3125 144.95 54.316 145.084Z" fill="#263238"/>
<path d="M42.1523 142.54C42.3112 142.578 42.4732 142.601 42.6363 142.608C42.9483 142.644 43.4043 142.692 43.9603 142.772C45.0763 142.916 46.6123 143.172 48.2923 143.524C49.9723 143.876 51.4923 144.272 52.5603 144.58C53.1043 144.732 53.5403 144.868 53.8403 144.96C53.9943 145.018 54.1538 145.059 54.3163 145.084C54.1703 145.011 54.0192 144.948 53.8643 144.896C53.5683 144.784 53.1363 144.632 52.5963 144.464C51.5203 144.12 50.0123 143.712 48.3283 143.356C46.8905 143.047 45.438 142.811 43.9763 142.648C43.4123 142.584 42.9563 142.556 42.6443 142.544C42.4809 142.526 42.3161 142.525 42.1523 142.54Z" fill="#263238"/>
<path d="M59.3076 158.612C59.3431 158.568 59.3727 158.52 59.3956 158.468L59.6156 158.036C59.8036 157.66 60.0636 157.112 60.3756 156.436C60.9996 155.068 61.7996 153.152 62.6516 151.028C63.5036 148.904 64.2916 146.98 64.8836 145.604L65.5916 143.972L65.7836 143.528C65.8236 143.424 65.8436 143.368 65.8356 143.368C65.8027 143.413 65.7745 143.461 65.7516 143.512L65.5316 143.944C65.3396 144.32 65.0836 144.868 64.7716 145.544C64.1476 146.912 63.3476 148.828 62.4916 150.952C61.6356 153.076 60.8556 155 60.2596 156.376C59.9716 157.048 59.7316 157.6 59.5516 158.008L59.3636 158.452C59.3381 158.503 59.3193 158.556 59.3076 158.612Z" fill="#263238"/>
<path d="M43.2002 153.06C43.2002 153.06 43.2522 153.092 43.3562 153.132L43.8242 153.296L45.5522 153.896C47.0082 154.4 49.0122 155.12 51.2242 155.92C53.4362 156.72 55.4482 157.42 56.9162 157.896C57.6522 158.136 58.2442 158.32 58.6602 158.44L59.1362 158.576C59.2482 158.608 59.3082 158.62 59.3082 158.612C59.2573 158.584 59.2037 158.561 59.1482 158.544L58.6802 158.376L56.9562 157.78C55.5002 157.276 53.4962 156.556 51.2842 155.756C49.0722 154.956 47.0562 154.252 45.5922 153.776C44.8562 153.54 44.2602 153.352 43.8482 153.232L43.3682 153.096C43.3135 153.078 43.2573 153.066 43.2002 153.06Z" fill="#263238"/>
<path d="M180.636 93.02H66.8563C63.6376 93.02 61.0283 95.6293 61.0283 98.848V170.14C61.0283 173.359 63.6376 175.968 66.8563 175.968H180.636C183.855 175.968 186.464 173.359 186.464 170.14V98.848C186.464 95.6293 183.855 93.02 180.636 93.02Z" fill="#263238"/>
<path d="M55.7842 169.836H191.684V169.976C191.684 171.864 190.934 173.675 189.599 175.011C188.264 176.346 186.453 177.096 184.564 177.096H62.9042C61.0158 177.096 59.2048 176.346 57.8696 175.011C56.5343 173.675 55.7842 171.864 55.7842 169.976V169.836Z" fill="#263238"/>
<path d="M182.748 96.316H64.3965V166.364H182.748V96.316Z" fill="#E0E0E0"/>
<path d="M111.38 169.836L113.068 172.52H136.796L138.364 169.836H111.38Z" fill="#455A64"/>
<path d="M177.308 100.984H68.3438V166.34H177.308V100.984Z" fill="#FAFAFA"/>
<path d="M72.9961 104.204C72.9968 104.385 72.9438 104.563 72.8436 104.714C72.7435 104.865 72.6007 104.983 72.4334 105.053C72.2661 105.123 72.0818 105.142 71.9038 105.107C71.7259 105.072 71.5623 104.985 71.4338 104.857C71.3053 104.729 71.2176 104.566 71.182 104.388C71.1463 104.21 71.1642 104.026 71.2334 103.858C71.3026 103.691 71.42 103.547 71.5707 103.447C71.7215 103.346 71.8987 103.292 72.0801 103.292C72.3223 103.292 72.5547 103.388 72.7264 103.559C72.898 103.73 72.995 103.962 72.9961 104.204Z" fill="#455A64"/>
<path d="M76.7246 104.204C76.7254 104.386 76.6722 104.563 76.5719 104.714C76.4715 104.866 76.3285 104.984 76.161 105.054C75.9934 105.123 75.8089 105.142 75.6309 105.107C75.4528 105.071 75.2892 104.984 75.1609 104.856C75.0325 104.727 74.9452 104.564 74.91 104.386C74.8748 104.208 74.8932 104.023 74.9631 103.856C75.0329 103.688 75.1509 103.545 75.3022 103.445C75.4534 103.344 75.6311 103.291 75.8126 103.292C76.0544 103.292 76.2864 103.388 76.4574 103.559C76.6285 103.73 76.7246 103.962 76.7246 104.204Z" fill="#455A64"/>
<path d="M80.456 104.204C80.4568 104.385 80.4038 104.563 80.3036 104.714C80.2034 104.865 80.0606 104.983 79.8933 105.053C79.726 105.123 79.5417 105.142 79.3638 105.107C79.1858 105.072 79.0222 104.985 78.8937 104.857C78.7652 104.729 78.6776 104.566 78.6419 104.388C78.6062 104.21 78.6242 104.026 78.6934 103.858C78.7626 103.691 78.88 103.547 79.0307 103.447C79.1814 103.346 79.3587 103.292 79.54 103.292C79.6601 103.291 79.7791 103.315 79.8902 103.36C80.0014 103.406 80.1024 103.473 80.1875 103.558C80.2726 103.642 80.3401 103.743 80.3862 103.854C80.4323 103.965 80.456 104.084 80.456 104.204Z" fill="#455A64"/>
<path d="M177.308 108.204C177.308 108.264 152.908 108.308 122.828 108.308C92.7478 108.308 68.3438 108.264 68.3438 108.204C68.3438 108.144 92.7438 108.1 122.828 108.1C152.912 108.1 177.308 108.148 177.308 108.204Z" fill="#455A64"/>
<path d="M186.464 169.892H61.0283V170.292H186.464V169.892Z" fill="#455A64"/>
<path d="M101.108 139.96H77.2764V141.556H101.108V139.96Z" fill="#455A64"/>
<path d="M131.893 117.824H108.061V119.42H131.893V117.824Z" fill="#455A64"/>
<path d="M167.341 123.764C167.341 123.82 154.069 123.868 137.701 123.868C121.333 123.868 108.061 123.82 108.061 123.764C108.061 123.708 121.329 123.656 137.701 123.656C154.073 123.656 167.341 123.704 167.341 123.764Z" fill="#455A64"/>
<path d="M167.341 127.244C167.341 127.3 154.069 127.348 137.701 127.348C121.333 127.348 108.061 127.3 108.061 127.244C108.061 127.188 121.329 127.14 137.701 127.14C154.073 127.14 167.341 127.2 167.341 127.244Z" fill="#455A64"/>
<path d="M167.341 130.724C167.341 130.784 154.069 130.828 137.701 130.828C121.333 130.828 108.061 130.784 108.061 130.724C108.061 130.664 121.329 130.62 137.701 130.62C154.073 130.62 167.341 130.668 167.341 130.724Z" fill="#455A64"/>
<path d="M167.341 134.208C167.341 134.264 154.069 134.312 137.701 134.312C121.333 134.312 108.061 134.264 108.061 134.208C108.061 134.152 121.329 134.1 137.701 134.1C154.073 134.1 167.341 134.148 167.341 134.208Z" fill="#455A64"/>
<path d="M167.341 137.688C167.341 137.744 154.069 137.792 137.701 137.792C121.333 137.792 108.061 137.744 108.061 137.688C108.061 137.632 121.329 137.584 137.701 137.584C154.073 137.584 167.341 137.628 167.341 137.688Z" fill="#455A64"/>
<path d="M131.201 141.168C131.201 141.224 126.021 141.272 119.633 141.272C113.245 141.272 108.061 141.224 108.061 141.168C108.061 141.112 113.261 141.064 119.633 141.064C126.005 141.064 131.201 141.112 131.201 141.168Z" fill="#455A64"/>
<path d="M166.904 147.924C166.904 147.984 158.18 148.028 147.424 148.028C136.668 148.028 127.944 147.984 127.944 147.924C127.944 147.864 136.664 147.82 147.424 147.82C158.184 147.82 166.904 147.868 166.904 147.924Z" fill="#455A64"/>
<path d="M166.904 151.62C166.904 151.676 158.18 151.724 147.424 151.724C136.668 151.724 127.944 151.676 127.944 151.62C127.944 151.564 136.664 151.516 147.424 151.516C158.184 151.516 166.904 151.564 166.904 151.62Z" fill="#455A64"/>
<path d="M166.904 155.316C166.904 155.372 158.18 155.42 147.424 155.42C136.668 155.42 127.944 155.372 127.944 155.316C127.944 155.26 136.664 155.212 147.424 155.212C158.184 155.212 166.904 155.256 166.904 155.316Z" fill="#455A64"/>
<path d="M166.904 159.012C166.904 159.068 158.18 159.116 147.424 159.116C136.668 159.116 127.944 159.068 127.944 159.012C127.944 158.956 136.664 158.908 147.424 158.908C158.184 158.908 166.904 158.952 166.904 159.012Z" fill="#455A64"/>
<path d="M101.168 147.572C101.168 147.628 95.9678 147.676 89.5678 147.676C83.1678 147.676 77.9678 147.628 77.9678 147.572C77.9678 147.516 83.1678 147.468 89.5678 147.468C95.9678 147.468 101.168 147.512 101.168 147.572Z" fill="#455A64"/>
<path d="M101.168 150.472C101.168 150.532 95.9678 150.576 89.5678 150.576C83.1678 150.576 77.9678 150.532 77.9678 150.472C77.9678 150.412 83.1678 150.368 89.5678 150.368C95.9678 150.368 101.168 150.4 101.168 150.472Z" fill="#455A64"/>
<path d="M101.168 153.376C101.168 153.432 95.9678 153.48 89.5678 153.48C83.1678 153.48 77.9678 153.432 77.9678 153.376C77.9678 153.32 83.1678 153.272 89.5678 153.272C95.9678 153.272 101.168 153.32 101.168 153.376Z" fill="#455A64"/>
<path d="M101.168 156.276C101.168 156.336 95.9678 156.38 89.5678 156.38C83.1678 156.38 77.9678 156.336 77.9678 156.276C77.9678 156.216 83.1678 156.172 89.5678 156.172C95.9678 156.172 101.168 156.22 101.168 156.276Z" fill="#455A64"/>
<path d="M101.168 159.2C101.168 159.256 95.9678 159.304 89.5678 159.304C83.1678 159.304 77.9678 159.256 77.9678 159.2C77.9678 159.144 83.1678 159.096 89.5678 159.096C95.9678 159.096 101.168 159.124 101.168 159.2Z" fill="#455A64"/>
<path d="M101.168 112.616H77.2764V135.732H101.168V112.616Z" fill="#E0E0E0"/>
<path d="M79.1279 133.752L85.7399 121.856L91.1439 129.46L94.4319 125.424L99.3159 133.752H79.1279Z" fill="#ADADAD"/>
<path d="M93.4478 119.544C93.4478 119.884 93.3469 120.217 93.1579 120.5C92.9689 120.782 92.7003 121.003 92.386 121.133C92.0717 121.263 91.7259 121.297 91.3923 121.231C91.0586 121.165 90.7521 121.001 90.5116 120.76C90.271 120.52 90.1072 120.213 90.0409 119.88C89.9745 119.546 90.0086 119.2 90.1387 118.886C90.2689 118.571 90.4894 118.303 90.7722 118.114C91.0551 117.925 91.3876 117.824 91.7278 117.824C92.184 117.824 92.6215 118.005 92.944 118.328C93.2666 118.65 93.4478 119.088 93.4478 119.544Z" fill="#ADADAD"/>
<path d="M99.3164 133.816C99.3147 133.785 99.3147 133.755 99.3164 133.724C99.3164 133.652 99.3164 133.564 99.3164 133.452C99.3164 133.208 99.3164 132.86 99.3164 132.412C99.3164 131.496 99.3164 130.172 99.2884 128.488C99.2884 125.112 99.2604 120.304 99.2404 114.528L99.3364 114.628H79.1524C79.1244 114.652 79.3644 114.412 79.2644 114.516V119.716C79.2644 121.412 79.2644 123.076 79.2644 124.696C79.2644 127.932 79.2644 130.992 79.2644 133.808L79.1644 133.712L93.7604 133.76L97.8804 133.788H98.9724H99.3524C99.3524 133.788 99.3244 133.788 99.2644 133.788H98.9924H97.9204L93.8244 133.816L79.1644 133.864H79.0684V133.764C79.0684 130.964 79.0684 127.888 79.0684 124.652C79.0684 123.032 79.0684 121.368 79.0684 119.672V114.472L79.1844 114.356H99.3684H99.4684V114.452C99.4684 120.252 99.4284 125.08 99.4164 128.472C99.4164 130.148 99.4164 131.464 99.3924 132.376C99.3924 132.816 99.3924 133.156 99.3924 133.4C99.3924 133.508 99.3924 133.592 99.3924 133.656C99.3924 133.72 99.3204 133.82 99.3164 133.816Z" fill="#455A64"/>
<path d="M124.952 146.16H108.044V162.52H124.952V146.16Z" fill="#E0E0E0"/>
<path d="M109.356 161.12L114.032 152.704L117.86 158.084L120.184 155.224L123.644 161.12H109.356Z" fill="#ADADAD"/>
<path d="M119.488 151.064C119.488 151.301 119.418 151.533 119.286 151.731C119.154 151.928 118.966 152.082 118.747 152.173C118.528 152.263 118.287 152.287 118.054 152.241C117.821 152.195 117.607 152.08 117.439 151.913C117.272 151.745 117.157 151.531 117.111 151.298C117.065 151.065 117.088 150.824 117.179 150.605C117.27 150.386 117.424 150.198 117.621 150.066C117.819 149.934 118.051 149.864 118.288 149.864C118.606 149.864 118.911 149.99 119.136 150.215C119.361 150.441 119.488 150.746 119.488 151.064Z" fill="#ADADAD"/>
<path d="M123.644 161.168C123.643 161.145 123.643 161.123 123.644 161.1C123.644 161.052 123.644 160.988 123.644 160.908C123.644 160.736 123.644 160.508 123.644 160.172C123.644 159.524 123.644 158.572 123.624 157.392C123.624 154.992 123.624 151.6 123.592 147.516L123.66 147.584H109.372C109.372 147.584 109.524 147.432 109.452 147.508V154.708C109.452 157 109.452 159.164 109.452 161.16L109.38 161.088L119.712 161.124L122.624 161.144H123.396H122.636H119.74L109.364 161.18H109.296V161.112C109.296 159.112 109.296 156.952 109.296 154.66C109.296 153.516 109.296 152.336 109.296 151.136V147.472C109.224 147.54 109.392 147.368 109.376 147.388H123.664H123.732V147.456C123.732 151.56 123.704 154.976 123.696 157.38C123.696 158.58 123.696 159.496 123.696 160.14C123.696 160.452 123.696 160.692 123.696 160.864C123.696 160.94 123.696 161 123.696 161.048C123.687 161.091 123.669 161.132 123.644 161.168Z" fill="#455A64"/>
</svg>
