<svg width="24" height="25" viewBox="0 0 24 25" fill="none" xmlns="http://www.w3.org/2000/svg">
<path d="M10 21.0675C6.57143 22.2248 3.71429 21.0675 2 17.5" stroke="white" stroke-width="1.5" stroke-linecap="round" stroke-linejoin="round"/>
<path d="M10 22.5V19.2579C10 18.6596 10.1839 18.1396 10.4804 17.6699C10.6838 17.3476 10.5445 16.8904 10.1771 16.7894C7.13394 15.9528 5 14.6077 5 10.1461C5 8.98611 5.38005 7.89556 6.04811 6.9464C6.21437 6.71018 6.29749 6.59208 6.31748 6.4851C6.33746 6.37813 6.30272 6.23852 6.23322 5.95932C5.95038 4.82292 5.96871 3.61619 6.39322 2.52823C6.39322 2.52823 7.27042 2.24242 9.26698 3.48969C9.72282 3.77447 9.95075 3.91686 10.1515 3.94871C10.3522 3.98056 10.6206 3.91384 11.1573 3.78041C11.8913 3.59795 12.6476 3.5 13.5 3.5C14.3524 3.5 15.1087 3.59795 15.8427 3.78041C16.3794 3.91384 16.6478 3.98056 16.8485 3.94871C17.0493 3.91686 17.2772 3.77447 17.733 3.48969C19.7296 2.24242 20.6068 2.52823 20.6068 2.52823C21.0313 3.61619 21.0496 4.82292 20.7668 5.95932C20.6973 6.23852 20.6625 6.37813 20.6825 6.4851C20.7025 6.59207 20.7856 6.71019 20.9519 6.9464C21.6199 7.89556 22 8.98611 22 10.1461C22 14.6077 19.8661 15.9528 16.8229 16.7894C16.4555 16.8904 16.3162 17.3476 16.5196 17.6699C16.8161 18.1396 17 18.6596 17 19.2579V22.5" stroke="white" stroke-width="1.5" stroke-linecap="round" stroke-linejoin="round"/>
</svg>
