<svg width="666" height="641" viewBox="0 0 666 641" fill="none" xmlns="http://www.w3.org/2000/svg">
<path fill-rule="evenodd" clip-rule="evenodd" d="M42.6676 158.568C42.4665 158.901 42.266 159.234 42.0661 159.567L78.4328 159.632V259.633L3.40654 259.498C3.34033 259.831 3.27464 260.164 3.20949 260.497L78.4328 260.633V360.633L0 360.492C0.0861053 361.159 0.174332 361.826 0.264664 362.492L78.4328 362.633V462.633L31.6979 462.549C31.8688 462.883 32.0403 463.216 32.2123 463.55L78.4328 463.633V530.547C78.7653 530.919 79.0986 531.289 79.4328 531.66V463.635L169.433 463.797V563.797L112.699 563.695C113.099 564.03 113.5 564.364 113.902 564.697L169.433 564.797V602.078C169.766 602.257 170.099 602.436 170.433 602.614V564.799L270.433 564.978V637.314C270.766 637.374 271.099 637.434 271.433 637.493V564.98L371.433 565.16V640.799C372.1 640.726 372.767 640.651 373.433 640.574V565.164L473.433 565.343V613.344C473.766 613.196 474.1 613.047 474.433 612.898V565.345L551.012 565.483C551.415 565.151 551.817 564.819 552.219 564.485L474.433 564.345V464.345L574.433 464.525V544.267C574.767 543.934 575.1 543.6 575.433 543.266V464.527L633.093 464.63C633.266 464.297 633.439 463.965 633.611 463.631L575.433 463.527V363.526L665.436 363.688C665.529 363.022 665.62 362.356 665.709 361.689L575.433 361.526V261.526L662.886 261.684C662.822 261.35 662.757 261.016 662.693 260.683L575.433 260.526V160.526L624.425 160.614C624.226 160.28 624.027 159.946 623.827 159.613L575.433 159.526V97.5336C575.1 97.1993 574.767 96.8657 574.433 96.5327V159.524L474.433 159.344V69.3443L543.7 69.4689C543.269 69.1338 542.837 68.7996 542.404 68.4665L474.433 68.3443V27.9012C474.1 27.7521 473.766 27.6035 473.433 27.4554V68.3425L373.433 68.1627V0.225471C372.767 0.148438 372.1 0.0732803 371.433 0V68.1591L271.433 67.9793V3.30595C271.099 3.36534 270.766 3.4252 270.433 3.48554V67.9775L170.433 67.7977V38.1855C170.099 38.3634 169.766 38.5418 169.433 38.7208V67.7959L124.443 67.715C124.008 68.0465 123.575 68.3791 123.142 68.7126L169.433 68.7959V158.796L79.4328 158.634V109.14C79.0986 109.51 78.7653 109.881 78.4328 110.252V158.632L42.6676 158.568ZM170.433 68.7977V158.798L270.433 158.978V68.9775L170.433 68.7977ZM271.433 68.9793V158.979L371.433 159.159V69.1591L271.433 68.9793ZM373.433 69.1627V159.163L473.433 159.343V69.3425L373.433 69.1627ZM79.4328 360.634V260.634L169.433 260.796V360.796L79.4328 360.634ZM170.433 360.798V260.798L270.433 260.978V360.978L170.433 360.798ZM271.433 360.98V260.98L371.433 261.159V361.16L271.433 360.98ZM373.433 361.163V261.163L473.433 261.343V361.343L373.433 361.163ZM474.433 361.345V261.345L574.433 261.524V361.525L474.433 361.345ZM574.433 160.524V260.524L474.433 260.345V160.344L574.433 160.524ZM473.433 160.343V260.343L373.433 260.163V160.163L473.433 160.343ZM371.433 160.159V260.159L271.433 259.98V159.979L371.433 160.159ZM270.433 159.978V259.978L170.433 259.798V159.798L270.433 159.978ZM169.433 159.796V259.796L79.4328 259.634V159.634L169.433 159.796ZM473.433 464.343V564.343L373.433 564.164V464.163L473.433 464.343ZM371.433 464.16V564.16L271.433 563.98V463.98L371.433 464.16ZM270.433 463.978V563.978L170.433 563.799V463.798L270.433 463.978ZM79.4328 462.635L169.433 462.797V362.796L79.4328 362.634V462.635ZM170.433 462.798L270.433 462.978V362.978L170.433 362.798V462.798ZM271.433 462.98L371.433 463.16V363.16L271.433 362.98V462.98ZM373.433 463.163L473.433 463.343V363.343L373.433 363.163V463.163ZM474.433 463.345L574.433 463.525V363.525L474.433 363.345V463.345Z" fill="url(#paint0_radial_5_38)"/>
<defs>
<radialGradient id="paint0_radial_5_38" cx="0" cy="0" r="1" gradientUnits="userSpaceOnUse" gradientTransform="translate(332.644 277.95) rotate(90.0511) scale(236.45 245.641)">
<stop stop-color="#9AF0F3"/>
<stop offset="1" stop-color="#737373" stop-opacity="0.26"/>
</radialGradient>
</defs>
</svg>
