<svg width="24" height="24" viewBox="0 0 24 24" fill="none" xmlns="http://www.w3.org/2000/svg">
<path d="M19.75 11V10C19.75 6.22876 19.75 4.34315 18.5784 3.17157C17.4068 2 15.5212 2 11.75 2H10.7501C6.97883 2 5.09322 2 3.92165 3.17156C2.75008 4.34312 2.75006 6.22872 2.75003 9.99993L2.75 14C2.74996 17.7712 2.74995 19.6568 3.92148 20.8284C5.09305 21.9999 6.97873 22 10.75 22" stroke="#ADADAD" stroke-width="1.5" stroke-linecap="round" stroke-linejoin="round"/>
<path d="M7.25 7H15.25M7.25 12H15.25" stroke="#ADADAD" stroke-width="1.5" stroke-linecap="round"/>
<path d="M13.25 20.8268V22H14.4234C14.8328 22 15.0375 22 15.2215 21.9238C15.4056 21.8475 15.5503 21.7028 15.8398 21.4134L20.6634 16.5894C20.9364 16.3164 21.0729 16.1799 21.1459 16.0327C21.2848 15.7525 21.2848 15.4236 21.1459 15.1434C21.0729 14.9961 20.9364 14.8596 20.6634 14.5866C20.3903 14.3136 20.2538 14.1771 20.1065 14.1041C19.8263 13.9653 19.4973 13.9653 19.2171 14.1041C19.0699 14.1771 18.9333 14.3136 18.6603 14.5866L13.8367 19.4106C13.5472 19.7 13.4025 19.8447 13.3263 20.0287C13.25 20.2128 13.25 20.4174 13.25 20.8268Z" stroke="#ADADAD" stroke-width="1.5" stroke-linejoin="round"/>
</svg>
