<svg width="16" height="16" viewBox="0 0 16 16" fill="none" xmlns="http://www.w3.org/2000/svg">
<path d="M5.98867 1.33331C4.1176 1.37595 3.02473 1.55405 2.27802 2.29817C1.62449 2.94943 1.40603 3.86494 1.33301 5.33331M10.0107 1.33331C11.8817 1.37595 12.9746 1.55405 13.7213 2.29817C14.3749 2.94943 14.5933 3.86494 14.6663 5.33331M10.0107 14.6667C11.8817 14.6241 12.9746 14.4459 13.7213 13.7018C14.3749 13.0505 14.5933 12.1351 14.6663 10.6667M5.98867 14.6667C4.1176 14.6241 3.02473 14.4459 2.27802 13.7018C1.62449 13.0505 1.40603 12.1351 1.33301 10.6667" stroke="white" stroke-width="1.5" stroke-linecap="round" stroke-linejoin="round"/>
<path d="M10.0003 10L11.3337 11.3333M10.667 7.66667C10.667 6.00979 9.32386 4.66666 7.66699 4.66666C6.01012 4.66666 4.66699 6.00979 4.66699 7.66667C4.66699 9.32354 6.01012 10.6667 7.66699 10.6667C9.32386 10.6667 10.667 9.32354 10.667 7.66667Z" stroke="white" stroke-width="1.5" stroke-linecap="round" stroke-linejoin="round"/>
</svg>
