<svg width="26" height="26" viewBox="0 0 26 26" fill="none" xmlns="http://www.w3.org/2000/svg">
<path d="M2.08887 2.08874L22.9762 22.9761" stroke="#C16666" stroke-width="1.56655" stroke-linecap="round" stroke-linejoin="round"/>
<path d="M20.6455 16.4683C21.4243 15.0931 21.9314 13.4991 21.9314 11.6796V8.64777C21.9314 6.93501 21.9314 6.07862 21.5094 5.51989C21.0874 4.96116 20.1331 4.6899 18.2247 4.14739C16.9208 3.77674 15.7713 3.3302 14.853 2.92254C13.6009 2.36674 12.9749 2.08883 12.5321 2.08883C12.0893 2.08883 11.4633 2.36674 10.2112 2.92254C9.56921 3.20754 8.81426 3.51154 7.97253 3.79534M4.77591 4.7763C4.16809 4.99901 3.78342 5.21729 3.55485 5.51989C3.13281 6.07862 3.13281 6.93501 3.13281 8.64777V11.6796C3.13281 17.5544 8.42021 21.0791 11.0637 22.4743C11.6978 22.8089 12.0147 22.9762 12.5321 22.9762C13.0495 22.9762 13.3665 22.8089 14.0005 22.4743C15.2966 21.7903 17.228 20.5944 18.8604 18.8608" stroke="#C16666" stroke-width="1.56655" stroke-linecap="round"/>
</svg>
