<svg width="24" height="25" viewBox="0 0 24 25" fill="none" xmlns="http://www.w3.org/2000/svg">
<path d="M11.9854 15.9083L15.2268 19.5936C16.4277 20.9589 17.0282 21.6416 17.6567 21.4754C18.2852 21.3092 18.5008 20.4108 18.9318 18.6138L21.3229 8.6459C21.9868 5.87832 22.3187 4.49454 21.5808 3.812C20.843 3.12947 19.564 3.63725 17.0061 4.65282L5.13876 9.36449C3.09293 10.1767 2.07001 10.5829 2.00507 11.2808C1.99842 11.3522 1.99831 11.4241 2.00474 11.4955C2.06754 12.1937 3.08921 12.6033 5.13255 13.4223C6.05838 13.7934 6.5213 13.979 6.8532 14.3344C6.89052 14.3743 6.9264 14.4157 6.96078 14.4584C7.26658 14.8384 7.39709 15.3371 7.65808 16.3344L8.14653 18.201C8.4005 19.1715 8.52749 19.6568 8.86008 19.723C9.19267 19.7891 9.48225 19.3867 10.0614 18.5819L11.9854 15.9083ZM11.9854 15.9083L11.6676 15.5771C11.3059 15.2001 11.1251 15.0117 11.1251 14.7775C11.1251 14.5433 11.3059 14.3548 11.6676 13.9778L15.2406 10.2541" stroke="white" stroke-width="1.5" stroke-linecap="round" stroke-linejoin="round"/>
</svg>
